<?xml version="1.0" encoding="utf-8"?>
<!-- Generator: Adobe Illustrator 23.0.1, SVG Export Plug-In . SVG Version: 6.00 Build 0)  -->
<svg version="1.1" id="Layer_1" xmlns="http://www.w3.org/2000/svg" xmlns:xlink="http://www.w3.org/1999/xlink" x="0px" y="0px"
	 viewBox="0 0 446 55.8" style="enable-background:new 0 0 446 55.8;" xml:space="preserve">
<style type="text/css">
	.st0{fill:#FFFFFF;}
</style>
<polygon class="st0" points="223,45.8 211.7,34.5 234.3,34.5 "/>
<g>
	<path class="st0" d="M19.7,22.9c-1.3,0-2.3-0.4-3.1-1.1c-0.7-0.7-1.1-1.8-1.1-3v-5.7h2.5v5.9c0,0.6,0.1,1.1,0.4,1.5
		s0.7,0.6,1.2,0.6c0.5,0,0.9-0.2,1.2-0.6c0.3-0.4,0.4-0.9,0.4-1.5v-5.9h2.5v5.7c0,1.3-0.4,2.3-1.1,3C22,22.5,21,22.9,19.7,22.9z"/>
	<path class="st0" d="M28.6,22.8c-1,0-1.8-0.2-2.4-0.6c-0.6-0.4-0.9-1-1-1.8h2.4c0.1,0.7,0.4,1,1.1,1c0.3,0,0.5-0.1,0.6-0.2
		s0.2-0.3,0.2-0.5c0-0.4-0.3-0.7-0.9-0.8l-1.2-0.3c-1.3-0.3-2-1.1-2-2.1c0-0.7,0.3-1.3,0.9-1.7c0.6-0.4,1.4-0.6,2.3-0.6
		c0.9,0,1.6,0.2,2.1,0.6c0.5,0.4,0.9,1,1,1.7h-2.3c-0.1-0.6-0.4-0.9-0.9-0.9c-0.2,0-0.4,0.1-0.6,0.2s-0.2,0.3-0.2,0.5
		c0,0.4,0.3,0.6,0.8,0.8l1,0.3c0.8,0.2,1.4,0.5,1.7,0.8c0.3,0.3,0.5,0.8,0.5,1.3c0,0.7-0.3,1.3-0.9,1.7
		C30.4,22.6,29.6,22.8,28.6,22.8z"/>
	<path class="st0" d="M36.3,22.8c-1.1,0-1.9-0.3-2.6-1c-0.7-0.6-1-1.6-1-2.8c0-1.2,0.3-2.1,1-2.8c0.7-0.7,1.5-1,2.6-1
		c1.1,0,2,0.3,2.6,1c0.6,0.7,0.9,1.6,0.9,2.8v0.5h-4.7c0.1,1.2,0.5,1.8,1.3,1.8c0.6,0,0.9-0.3,1.1-0.9h2.3c-0.2,0.8-0.6,1.4-1.2,1.8
		C38,22.6,37.2,22.8,36.3,22.8z M36.3,16.7c-0.3,0-0.6,0.1-0.8,0.4c-0.2,0.3-0.3,0.7-0.4,1.2h2.3C37.3,17.3,37,16.7,36.3,16.7z"/>
	<path class="st0" d="M46.8,22.8c-0.8,0-1.5-0.2-1.9-0.7c-0.4-0.5-0.7-1.1-0.7-1.9V17h-0.9v-1.6h0.9v-2h2.4v2h1.7V17h-1.7v3.2
		c0,0.6,0.3,0.9,0.8,0.9c0.3,0,0.6-0.1,0.8-0.2l0.4,1.5C48.1,22.7,47.5,22.8,46.8,22.8z"/>
	<path class="st0" d="M52,22.6h-2.4v-10H52v3.8c0.4-0.8,1.1-1.1,2-1.1c0.8,0,1.4,0.2,1.8,0.7c0.4,0.5,0.7,1.1,0.7,1.9v4.8h-2.4v-4.4
		c0-0.4-0.1-0.7-0.3-0.9c-0.2-0.2-0.4-0.3-0.7-0.3c-0.3,0-0.6,0.1-0.8,0.4C52.1,17.7,52,18,52,18.6V22.6z"/>
	<path class="st0" d="M61.4,22.8c-1.1,0-1.9-0.3-2.6-1c-0.7-0.6-1-1.6-1-2.8c0-1.2,0.3-2.1,1-2.8c0.7-0.7,1.5-1,2.6-1
		c1.1,0,2,0.3,2.6,1c0.6,0.7,0.9,1.6,0.9,2.8v0.5h-4.7c0.1,1.2,0.5,1.8,1.3,1.8c0.6,0,0.9-0.3,1.1-0.9h2.3c-0.2,0.8-0.6,1.4-1.2,1.8
		C63,22.6,62.3,22.8,61.4,22.8z M61.3,16.7c-0.3,0-0.6,0.1-0.8,0.4c-0.2,0.3-0.3,0.7-0.4,1.2h2.3C62.4,17.3,62,16.7,61.3,16.7z"/>
	<path class="st0" d="M73.3,22.8c-0.5,0-0.9-0.1-1.3-0.4c-0.4-0.2-0.7-0.6-0.8-1l-0.1,1.2H69v-10h2.4v3.7c0.5-0.7,1.1-1,2-1
		s1.6,0.4,2.1,1.1c0.5,0.7,0.8,1.6,0.8,2.7c0,1.1-0.3,2-0.8,2.7C74.9,22.5,74.2,22.8,73.3,22.8z M72.6,21.1c0.4,0,0.7-0.2,0.9-0.6
		c0.2-0.4,0.3-0.9,0.3-1.5c0-0.6-0.1-1.1-0.3-1.5c-0.2-0.4-0.5-0.6-0.9-0.6c-0.4,0-0.7,0.2-0.9,0.5c-0.2,0.4-0.3,0.8-0.3,1.5v0.3
		c0,0.6,0.1,1.1,0.3,1.5S72.2,21.1,72.6,21.1z"/>
	<path class="st0" d="M83.5,21.8c-0.7,0.7-1.6,1.1-2.7,1.1s-2-0.4-2.7-1.1c-0.7-0.7-1-1.6-1-2.7c0-1.1,0.3-2,1-2.7
		c0.7-0.7,1.6-1.1,2.7-1.1s2,0.4,2.7,1.1c0.7,0.7,1,1.6,1,2.7C84.5,20.1,84.2,21,83.5,21.8z M79.9,20.7c0.2,0.4,0.5,0.6,0.9,0.6
		s0.7-0.2,0.9-0.6c0.2-0.4,0.3-0.9,0.3-1.6c0-0.7-0.1-1.2-0.3-1.6c-0.2-0.4-0.5-0.6-0.9-0.6s-0.7,0.2-0.9,0.6
		c-0.2,0.4-0.3,0.9-0.3,1.6C79.6,19.7,79.7,20.3,79.9,20.7z"/>
	<path class="st0" d="M91.8,21.8c-0.7,0.7-1.6,1.1-2.7,1.1s-2-0.4-2.7-1.1c-0.7-0.7-1-1.6-1-2.7c0-1.1,0.3-2,1-2.7
		c0.7-0.7,1.6-1.1,2.7-1.1s2,0.4,2.7,1.1c0.7,0.7,1,1.6,1,2.7C92.8,20.1,92.4,21,91.8,21.8z M88.2,20.7c0.2,0.4,0.5,0.6,0.9,0.6
		s0.7-0.2,0.9-0.6c0.2-0.4,0.3-0.9,0.3-1.6c0-0.7-0.1-1.2-0.3-1.6c-0.2-0.4-0.5-0.6-0.9-0.6s-0.7,0.2-0.9,0.6
		c-0.2,0.4-0.3,0.9-0.3,1.6C87.8,19.7,87.9,20.3,88.2,20.7z"/>
	<path class="st0" d="M97,22.8c-1,0-1.8-0.2-2.4-0.6c-0.6-0.4-0.9-1-1-1.8H96c0.1,0.7,0.4,1,1.1,1c0.3,0,0.5-0.1,0.6-0.2
		s0.2-0.3,0.2-0.5c0-0.4-0.3-0.7-0.9-0.8l-1.2-0.3c-1.3-0.3-2-1.1-2-2.1c0-0.7,0.3-1.3,0.9-1.7c0.6-0.4,1.4-0.6,2.3-0.6
		c0.9,0,1.6,0.2,2.1,0.6c0.5,0.4,0.9,1,1,1.7h-2.3c-0.1-0.6-0.4-0.9-0.9-0.9c-0.2,0-0.4,0.1-0.6,0.2s-0.2,0.3-0.2,0.5
		c0,0.4,0.3,0.6,0.8,0.8l1,0.3c0.8,0.2,1.4,0.5,1.7,0.8c0.3,0.3,0.5,0.8,0.5,1.3c0,0.7-0.3,1.3-0.9,1.7C98.8,22.6,98,22.8,97,22.8z"
		/>
	<path class="st0" d="M104.4,22.8c-0.8,0-1.5-0.2-1.9-0.7c-0.4-0.5-0.7-1.1-0.7-1.9V17h-0.9v-1.6h0.9v-2h2.4v2h1.7V17h-1.7v3.2
		c0,0.6,0.3,0.9,0.8,0.9c0.3,0,0.6-0.1,0.8-0.2l0.4,1.5C105.8,22.7,105.2,22.8,104.4,22.8z"/>
	<path class="st0" d="M110.3,22.8c-1.1,0-1.9-0.3-2.6-1c-0.7-0.6-1-1.6-1-2.8c0-1.2,0.3-2.1,1-2.8c0.7-0.7,1.5-1,2.6-1
		c1.1,0,2,0.3,2.6,1c0.6,0.7,0.9,1.6,0.9,2.8v0.5h-4.7c0.1,1.2,0.5,1.8,1.3,1.8c0.6,0,0.9-0.3,1.1-0.9h2.3c-0.2,0.8-0.6,1.4-1.2,1.8
		C111.9,22.6,111.2,22.8,110.3,22.8z M110.3,16.7c-0.3,0-0.6,0.1-0.8,0.4c-0.2,0.3-0.3,0.7-0.4,1.2h2.3
		C111.3,17.3,110.9,16.7,110.3,16.7z"/>
	<path class="st0" d="M117.5,22.6H115v-7.2h2.1l0.1,1.3c0.1-0.4,0.4-0.7,0.7-1c0.3-0.3,0.7-0.4,1.2-0.4c0.1,0,0.2,0,0.4,0v2.2
		c-0.1,0-0.3-0.1-0.6-0.1c-0.5,0-0.8,0.1-1.1,0.4c-0.3,0.3-0.4,0.7-0.4,1.2V22.6z"/>
	<path class="st0" d="M127.8,22.8c-0.5,0-0.9-0.1-1.3-0.4c-0.4-0.2-0.7-0.6-0.8-1l-0.1,1.2h-2.2v-10h2.4v3.7c0.5-0.7,1.1-1,2-1
		s1.6,0.4,2.1,1.1c0.5,0.7,0.8,1.6,0.8,2.7c0,1.1-0.3,2-0.8,2.7C129.4,22.5,128.7,22.8,127.8,22.8z M127.1,21.1
		c0.4,0,0.7-0.2,0.9-0.6c0.2-0.4,0.3-0.9,0.3-1.5c0-0.6-0.1-1.1-0.3-1.5c-0.2-0.4-0.5-0.6-0.9-0.6c-0.4,0-0.7,0.2-0.9,0.5
		c-0.2,0.4-0.3,0.8-0.3,1.5v0.3c0,0.6,0.1,1.1,0.3,1.5S126.7,21.1,127.1,21.1z"/>
	<path class="st0" d="M136.3,15.4h2.4v7.2h-2.2l-0.1-1.2c-0.2,0.4-0.5,0.7-0.8,1c-0.4,0.2-0.8,0.4-1.4,0.4c-0.7,0-1.3-0.2-1.7-0.7
		c-0.4-0.5-0.6-1.1-0.6-1.9v-4.8h2.4v4.4c0,0.4,0.1,0.7,0.2,0.9s0.4,0.3,0.7,0.3c0.3,0,0.5-0.1,0.7-0.4c0.2-0.3,0.3-0.7,0.3-1.2
		V15.4z"/>
	<path class="st0" d="M143.3,22.8c-0.8,0-1.5-0.2-1.9-0.7c-0.4-0.5-0.7-1.1-0.7-1.9V17h-0.9v-1.6h0.9v-2h2.4v2h1.7V17h-1.7v3.2
		c0,0.6,0.3,0.9,0.8,0.9c0.3,0,0.6-0.1,0.8-0.2l0.4,1.5C144.7,22.7,144.1,22.8,143.3,22.8z"/>
	<path class="st0" d="M149,22.8c-0.8,0-1.5-0.2-1.9-0.7c-0.4-0.5-0.7-1.1-0.7-1.9V17h-0.9v-1.6h0.9v-2h2.4v2h1.7V17h-1.7v3.2
		c0,0.6,0.3,0.9,0.8,0.9c0.3,0,0.6-0.1,0.8-0.2l0.4,1.5C150.4,22.7,149.8,22.8,149,22.8z"/>
	<path class="st0" d="M157.7,21.8c-0.7,0.7-1.6,1.1-2.7,1.1s-2-0.4-2.7-1.1c-0.7-0.7-1-1.6-1-2.7c0-1.1,0.3-2,1-2.7
		c0.7-0.7,1.6-1.1,2.7-1.1s2,0.4,2.7,1.1c0.7,0.7,1,1.6,1,2.7C158.7,20.1,158.4,21,157.7,21.8z M154.1,20.7c0.2,0.4,0.5,0.6,0.9,0.6
		s0.7-0.2,0.9-0.6c0.2-0.4,0.3-0.9,0.3-1.6c0-0.7-0.1-1.2-0.3-1.6c-0.2-0.4-0.5-0.6-0.9-0.6s-0.7,0.2-0.9,0.6
		c-0.2,0.4-0.3,0.9-0.3,1.6C153.8,19.7,153.9,20.3,154.1,20.7z"/>
	<path class="st0" d="M162.4,22.6H160v-7.2h2.2l0.1,1.1c0.2-0.4,0.5-0.7,0.9-0.9c0.4-0.2,0.8-0.3,1.4-0.3c0.8,0,1.4,0.2,1.8,0.7
		c0.4,0.5,0.7,1.1,0.7,1.9v4.8h-2.4v-4.4c0-0.4-0.1-0.7-0.3-0.9c-0.2-0.2-0.4-0.3-0.7-0.3c-0.3,0-0.6,0.1-0.8,0.4
		c-0.2,0.3-0.3,0.7-0.3,1.2V22.6z"/>
	<path class="st0" d="M171.5,22.8c-1,0-1.8-0.2-2.4-0.6c-0.6-0.4-0.9-1-1-1.8h2.4c0.1,0.7,0.4,1,1.1,1c0.3,0,0.5-0.1,0.6-0.2
		s0.2-0.3,0.2-0.5c0-0.4-0.3-0.7-0.9-0.8l-1.2-0.3c-1.3-0.3-2-1.1-2-2.1c0-0.7,0.3-1.3,0.9-1.7c0.6-0.4,1.4-0.6,2.3-0.6
		c0.9,0,1.6,0.2,2.1,0.6c0.5,0.4,0.9,1,1,1.7h-2.3c-0.1-0.6-0.4-0.9-0.9-0.9c-0.2,0-0.4,0.1-0.6,0.2s-0.2,0.3-0.2,0.5
		c0,0.4,0.3,0.6,0.8,0.8l1,0.3c0.8,0.2,1.4,0.5,1.7,0.8c0.3,0.3,0.5,0.8,0.5,1.3c0,0.7-0.3,1.3-0.9,1.7
		C173.3,22.6,172.6,22.8,171.5,22.8z"/>
	<path class="st0" d="M182.7,22.6h-2.5l-2.1-7.2h2.5l1,4.9l1.2-4.9h2.1l1.3,4.9l1-4.9h2.3l-2.1,7.2h-2.5l-1.1-3.9L182.7,22.6z"/>
	<path class="st0" d="M192.8,22.6h-2.4v-10h2.4v3.8c0.4-0.8,1.1-1.1,2-1.1c0.8,0,1.4,0.2,1.8,0.7c0.4,0.5,0.7,1.1,0.7,1.9v4.8h-2.4
		v-4.4c0-0.4-0.1-0.7-0.3-0.9c-0.2-0.2-0.4-0.3-0.7-0.3c-0.3,0-0.6,0.1-0.8,0.4c-0.2,0.3-0.3,0.7-0.3,1.2V22.6z"/>
	<path class="st0" d="M202.2,22.8c-1.1,0-1.9-0.3-2.6-1c-0.7-0.6-1-1.6-1-2.8c0-1.2,0.3-2.1,1-2.8c0.7-0.7,1.5-1,2.6-1
		c1.1,0,2,0.3,2.6,1c0.6,0.7,0.9,1.6,0.9,2.8v0.5h-4.7c0.1,1.2,0.5,1.8,1.3,1.8c0.6,0,0.9-0.3,1.1-0.9h2.3c-0.2,0.8-0.6,1.4-1.2,1.8
		C203.8,22.6,203,22.8,202.2,22.8z M202.1,16.7c-0.3,0-0.6,0.1-0.8,0.4c-0.2,0.3-0.3,0.7-0.4,1.2h2.3
		C203.2,17.3,202.8,16.7,202.1,16.7z"/>
	<path class="st0" d="M209.3,22.6h-2.4v-7.2h2.2l0.1,1.1c0.2-0.4,0.5-0.7,0.9-0.9c0.4-0.2,0.8-0.3,1.4-0.3c0.8,0,1.4,0.2,1.8,0.7
		c0.4,0.5,0.7,1.1,0.7,1.9v4.8h-2.4v-4.4c0-0.4-0.1-0.7-0.3-0.9c-0.2-0.2-0.4-0.3-0.7-0.3c-0.3,0-0.6,0.1-0.8,0.4
		c-0.2,0.3-0.3,0.7-0.3,1.2V22.6z"/>
	<path class="st0" d="M221.2,22.8c-0.8,0-1.5-0.2-1.9-0.7c-0.4-0.5-0.7-1.1-0.7-1.9V17h-0.9v-1.6h0.9v-2h2.4v2h1.7V17H221v3.2
		c0,0.6,0.3,0.9,0.8,0.9c0.3,0,0.6-0.1,0.8-0.2l0.4,1.5C222.5,22.7,221.9,22.8,221.2,22.8z"/>
	<path class="st0" d="M226.5,22.6H224v-10h2.4v3.8c0.4-0.8,1.1-1.1,2-1.1c0.8,0,1.4,0.2,1.8,0.7c0.4,0.5,0.7,1.1,0.7,1.9v4.8h-2.4
		v-4.4c0-0.4-0.1-0.7-0.3-0.9c-0.2-0.2-0.4-0.3-0.7-0.3s-0.6,0.1-0.8,0.4c-0.2,0.3-0.3,0.7-0.3,1.2V22.6z"/>
	<path class="st0" d="M235.8,22.8c-1.1,0-1.9-0.3-2.6-1c-0.7-0.6-1-1.6-1-2.8c0-1.2,0.3-2.1,1-2.8c0.7-0.7,1.5-1,2.6-1
		c1.1,0,2,0.3,2.6,1c0.6,0.7,0.9,1.6,0.9,2.8v0.5h-4.7c0.1,1.2,0.5,1.8,1.3,1.8c0.6,0,0.9-0.3,1.1-0.9h2.3c-0.2,0.8-0.6,1.4-1.2,1.8
		C237.4,22.6,236.7,22.8,235.8,22.8z M235.7,16.7c-0.3,0-0.6,0.1-0.8,0.4c-0.2,0.3-0.3,0.7-0.4,1.2h2.3
		C236.8,17.3,236.4,16.7,235.7,16.7z"/>
	<path class="st0" d="M239.5,25.5L240,24c0.3,0.1,0.6,0.2,0.9,0.2c0.2,0,0.4-0.1,0.6-0.2c0.2-0.1,0.3-0.4,0.5-0.8l0.3-0.6l-2.8-7.1
		h2.5l1.4,4.5l1.3-4.5h2.4l-3.1,7.8c-0.3,0.9-0.7,1.5-1.2,2c-0.5,0.4-1,0.6-1.7,0.6C240.5,25.8,240,25.7,239.5,25.5z"/>
	<path class="st0" d="M253.3,22.6h-2.4v-10h2.4V22.6z"/>
	<path class="st0" d="M257.2,14.2c-0.3,0.3-0.6,0.4-1,0.4s-0.7-0.1-1-0.4c-0.3-0.3-0.4-0.6-0.4-0.9c0-0.4,0.1-0.7,0.4-0.9
		c0.3-0.3,0.6-0.4,1-0.4s0.7,0.1,1,0.4s0.4,0.6,0.4,0.9C257.6,13.7,257.4,14,257.2,14.2z M257.4,22.6H255v-7.2h2.4V22.6z"/>
	<path class="st0" d="M262.3,25.8c-0.9,0-1.7-0.2-2.3-0.6c-0.6-0.4-1-1-1.1-1.8h2.3c0.1,0.3,0.2,0.5,0.4,0.7
		c0.2,0.2,0.4,0.3,0.7,0.3c0.8,0,1.2-0.5,1.2-1.6v-1.1c-0.5,0.7-1.1,1-2,1c-0.9,0-1.6-0.3-2.1-1c-0.5-0.7-0.8-1.6-0.8-2.7
		s0.3-2,0.8-2.7c0.6-0.7,1.3-1,2.2-1c0.4,0,0.8,0.1,1.1,0.3c0.4,0.2,0.6,0.5,0.8,0.9l0.1-1.1h2.2V22C266,24.6,264.8,25.8,262.3,25.8
		z M262.4,21c0.4,0,0.7-0.2,0.9-0.5c0.2-0.3,0.3-0.8,0.3-1.4v-0.3c0-0.6-0.1-1.1-0.3-1.4c-0.2-0.3-0.5-0.5-0.9-0.5
		c-0.4,0-0.7,0.2-0.9,0.6s-0.3,0.9-0.3,1.5c0,0.6,0.1,1.1,0.3,1.5C261.7,20.8,262,21,262.4,21z"/>
	<path class="st0" d="M270.1,22.6h-2.4v-10h2.4v3.8c0.4-0.8,1.1-1.1,2-1.1c0.8,0,1.4,0.2,1.8,0.7c0.4,0.5,0.7,1.1,0.7,1.9v4.8h-2.4
		v-4.4c0-0.4-0.1-0.7-0.3-0.9c-0.2-0.2-0.4-0.3-0.7-0.3s-0.6,0.1-0.8,0.4c-0.2,0.3-0.3,0.7-0.3,1.2V22.6z"/>
	<path class="st0" d="M279.1,22.8c-0.8,0-1.5-0.2-1.9-0.7c-0.4-0.5-0.7-1.1-0.7-1.9V17h-0.9v-1.6h0.9v-2h2.4v2h1.7V17H279v3.2
		c0,0.6,0.3,0.9,0.8,0.9c0.3,0,0.6-0.1,0.8-0.2l0.4,1.5C280.5,22.7,279.9,22.8,279.1,22.8z"/>
	<path class="st0" d="M289.1,15.4h2.4v7.2h-2.2l-0.1-1.2c-0.2,0.4-0.5,0.7-0.8,1s-0.8,0.4-1.4,0.4c-0.7,0-1.3-0.2-1.7-0.7
		s-0.6-1.1-0.6-1.9v-4.8h2.4v4.4c0,0.4,0.1,0.7,0.2,0.9c0.2,0.2,0.4,0.3,0.7,0.3c0.3,0,0.5-0.1,0.7-0.4c0.2-0.3,0.3-0.7,0.3-1.2
		V15.4z"/>
	<path class="st0" d="M295.7,25.6h-2.4V15.4h2.2l0.1,1.2c0.4-0.9,1.2-1.4,2.2-1.4c0.9,0,1.6,0.4,2.1,1.1c0.5,0.7,0.8,1.6,0.8,2.7
		c0,1.1-0.3,2-0.8,2.7c-0.5,0.7-1.3,1.1-2.1,1.1c-0.4,0-0.8-0.1-1.1-0.3c-0.3-0.2-0.6-0.4-0.8-0.8V25.6z M296.9,21.1
		c0.4,0,0.7-0.2,0.9-0.6c0.2-0.4,0.3-0.9,0.3-1.5c0-0.6-0.1-1.1-0.3-1.5c-0.2-0.4-0.5-0.6-0.9-0.6c-0.4,0-0.7,0.2-0.9,0.5
		c-0.2,0.4-0.3,0.8-0.3,1.5v0.3c0,0.6,0.1,1.1,0.3,1.5C296.2,21,296.5,21.1,296.9,21.1z"/>
	<path class="st0" d="M307.6,22.8c-0.8,0-1.5-0.2-1.9-0.7c-0.4-0.5-0.7-1.1-0.7-1.9V17h-0.9v-1.6h0.9v-2h2.4v2h1.7V17h-1.7v3.2
		c0,0.6,0.3,0.9,0.8,0.9c0.3,0,0.6-0.1,0.8-0.2l0.4,1.5C308.9,22.7,308.3,22.8,307.6,22.8z"/>
	<path class="st0" d="M316.3,21.8c-0.7,0.7-1.6,1.1-2.7,1.1s-2-0.4-2.7-1.1c-0.7-0.7-1-1.6-1-2.7c0-1.1,0.3-2,1-2.7
		c0.7-0.7,1.6-1.1,2.7-1.1s2,0.4,2.7,1.1c0.7,0.7,1,1.6,1,2.7C317.3,20.1,316.9,21,316.3,21.8z M312.6,20.7c0.2,0.4,0.5,0.6,0.9,0.6
		s0.7-0.2,0.9-0.6c0.2-0.4,0.3-0.9,0.3-1.6c0-0.7-0.1-1.2-0.3-1.6c-0.2-0.4-0.5-0.6-0.9-0.6s-0.7,0.2-0.9,0.6
		c-0.2,0.4-0.3,0.9-0.3,1.6C312.3,19.7,312.4,20.3,312.6,20.7z"/>
	<path class="st0" d="M325.7,22.8c-0.5,0-0.9-0.1-1.3-0.4c-0.4-0.2-0.7-0.6-0.8-1l-0.1,1.2h-2.2v-10h2.4v3.7c0.5-0.7,1.1-1,2-1
		c0.9,0,1.6,0.4,2.1,1.1c0.5,0.7,0.8,1.6,0.8,2.7c0,1.1-0.3,2-0.8,2.7C327.3,22.5,326.6,22.8,325.7,22.8z M325,21.1
		c0.4,0,0.7-0.2,0.9-0.6c0.2-0.4,0.3-0.9,0.3-1.5c0-0.6-0.1-1.1-0.3-1.5c-0.2-0.4-0.5-0.6-0.9-0.6c-0.4,0-0.7,0.2-0.9,0.5
		c-0.2,0.4-0.3,0.8-0.3,1.5v0.3c0,0.6,0.1,1.1,0.3,1.5C324.3,21,324.6,21.1,325,21.1z"/>
	<path class="st0" d="M335.9,21.8c-0.7,0.7-1.6,1.1-2.7,1.1s-2-0.4-2.7-1.1c-0.7-0.7-1-1.6-1-2.7c0-1.1,0.3-2,1-2.7
		c0.7-0.7,1.6-1.1,2.7-1.1s2,0.4,2.7,1.1c0.7,0.7,1,1.6,1,2.7C336.9,20.1,336.6,21,335.9,21.8z M332.3,20.7c0.2,0.4,0.5,0.6,0.9,0.6
		s0.7-0.2,0.9-0.6c0.2-0.4,0.3-0.9,0.3-1.6c0-0.7-0.1-1.2-0.3-1.6c-0.2-0.4-0.5-0.6-0.9-0.6s-0.7,0.2-0.9,0.6
		c-0.2,0.4-0.3,0.9-0.3,1.6C332,19.7,332.1,20.3,332.3,20.7z"/>
	<path class="st0" d="M344.2,21.8c-0.7,0.7-1.6,1.1-2.7,1.1s-2-0.4-2.7-1.1c-0.7-0.7-1-1.6-1-2.7c0-1.1,0.3-2,1-2.7
		c0.7-0.7,1.6-1.1,2.7-1.1s2,0.4,2.7,1.1c0.7,0.7,1,1.6,1,2.7C345.2,20.1,344.9,21,344.2,21.8z M340.6,20.7c0.2,0.4,0.5,0.6,0.9,0.6
		s0.7-0.2,0.9-0.6c0.2-0.4,0.3-0.9,0.3-1.6c0-0.7-0.1-1.2-0.3-1.6c-0.2-0.4-0.5-0.6-0.9-0.6s-0.7,0.2-0.9,0.6
		c-0.2,0.4-0.3,0.9-0.3,1.6C340.3,19.7,340.4,20.3,340.6,20.7z"/>
	<path class="st0" d="M349.4,22.8c-1,0-1.8-0.2-2.4-0.6c-0.6-0.4-0.9-1-1-1.8h2.4c0.1,0.7,0.4,1,1.1,1c0.3,0,0.5-0.1,0.6-0.2
		s0.2-0.3,0.2-0.5c0-0.4-0.3-0.7-0.9-0.8l-1.2-0.3c-1.3-0.3-2-1.1-2-2.1c0-0.7,0.3-1.3,0.9-1.7c0.6-0.4,1.4-0.6,2.3-0.6
		c0.9,0,1.6,0.2,2.1,0.6c0.5,0.4,0.9,1,1,1.7h-2.3c-0.1-0.6-0.4-0.9-0.9-0.9c-0.2,0-0.4,0.1-0.6,0.2c-0.1,0.1-0.2,0.3-0.2,0.5
		c0,0.4,0.3,0.6,0.8,0.8l1,0.3c0.8,0.2,1.4,0.5,1.7,0.8s0.5,0.8,0.5,1.3c0,0.7-0.3,1.3-0.8,1.7C351.2,22.6,350.4,22.8,349.4,22.8z"
		/>
	<path class="st0" d="M356.9,22.8c-0.8,0-1.5-0.2-1.9-0.7c-0.4-0.5-0.7-1.1-0.7-1.9V17h-0.9v-1.6h0.9v-2h2.4v2h1.7V17h-1.7v3.2
		c0,0.6,0.3,0.9,0.8,0.9c0.3,0,0.6-0.1,0.8-0.2l0.4,1.5C358.2,22.7,357.6,22.8,356.9,22.8z"/>
	<path class="st0" d="M361.8,25.5l0.5-1.5c0.3,0.1,0.6,0.2,0.9,0.2c0.2,0,0.4-0.1,0.6-0.2c0.2-0.1,0.3-0.4,0.5-0.8l0.3-0.6l-2.8-7.1
		h2.5l1.4,4.5l1.3-4.5h2.4l-3.1,7.8c-0.3,0.9-0.7,1.5-1.2,2c-0.5,0.4-1,0.6-1.7,0.6C362.7,25.8,362.2,25.7,361.8,25.5z"/>
	<path class="st0" d="M376,21.8c-0.7,0.7-1.6,1.1-2.7,1.1s-2-0.4-2.7-1.1c-0.7-0.7-1-1.6-1-2.7c0-1.1,0.3-2,1-2.7
		c0.7-0.7,1.6-1.1,2.7-1.1s2,0.4,2.7,1.1c0.7,0.7,1,1.6,1,2.7C377,20.1,376.7,21,376,21.8z M372.4,20.7c0.2,0.4,0.5,0.6,0.9,0.6
		s0.7-0.2,0.9-0.6c0.2-0.4,0.3-0.9,0.3-1.6c0-0.7-0.1-1.2-0.3-1.6c-0.2-0.4-0.5-0.6-0.9-0.6s-0.7,0.2-0.9,0.6
		c-0.2,0.4-0.3,0.9-0.3,1.6C372.1,19.7,372.2,20.3,372.4,20.7z"/>
	<path class="st0" d="M382.6,15.4h2.4v7.2h-2.2l-0.1-1.2c-0.2,0.4-0.5,0.7-0.8,1s-0.8,0.4-1.4,0.4c-0.7,0-1.3-0.2-1.7-0.7
		s-0.6-1.1-0.6-1.9v-4.8h2.4v4.4c0,0.4,0.1,0.7,0.2,0.9c0.2,0.2,0.4,0.3,0.7,0.3c0.3,0,0.5-0.1,0.7-0.4c0.2-0.3,0.3-0.7,0.3-1.2
		V15.4z"/>
	<path class="st0" d="M389.1,22.6h-2.4v-7.2h2.1l0.1,1.3c0.1-0.4,0.4-0.7,0.7-1c0.3-0.3,0.7-0.4,1.2-0.4c0.1,0,0.2,0,0.4,0v2.2
		c-0.1,0-0.3-0.1-0.6-0.1c-0.5,0-0.8,0.1-1.1,0.4c-0.3,0.3-0.4,0.7-0.4,1.2V22.6z"/>
	<path class="st0" d="M398.1,22.8c-1,0-1.8-0.2-2.4-0.6c-0.6-0.4-0.9-1-1-1.8h2.4c0.1,0.7,0.4,1,1.1,1c0.3,0,0.5-0.1,0.6-0.2
		s0.2-0.3,0.2-0.5c0-0.4-0.3-0.7-0.9-0.8l-1.2-0.3c-1.3-0.3-2-1.1-2-2.1c0-0.7,0.3-1.3,0.9-1.7c0.6-0.4,1.4-0.6,2.3-0.6
		c0.9,0,1.6,0.2,2.1,0.6c0.5,0.4,0.9,1,1,1.7h-2.3c-0.1-0.6-0.4-0.9-0.9-0.9c-0.2,0-0.4,0.1-0.6,0.2c-0.1,0.1-0.2,0.3-0.2,0.5
		c0,0.4,0.3,0.6,0.8,0.8l1,0.3c0.8,0.2,1.4,0.5,1.7,0.8s0.5,0.8,0.5,1.3c0,0.7-0.3,1.3-0.8,1.7C399.9,22.6,399.1,22.8,398.1,22.8z"
		/>
	<path class="st0" d="M405.9,22.8c-1.1,0-1.9-0.3-2.6-1s-1-1.6-1-2.8c0-1.2,0.3-2.1,1-2.8c0.7-0.7,1.6-1,2.6-1
		c0.9,0,1.6,0.2,2.2,0.7c0.6,0.5,1,1.2,1.1,2.1h-2.4c-0.1-0.8-0.5-1.2-0.9-1.2c-0.3,0-0.6,0.2-0.8,0.5c-0.2,0.4-0.3,0.9-0.3,1.7
		c0,0.8,0.1,1.3,0.3,1.7c0.2,0.4,0.5,0.5,0.8,0.5c0.3,0,0.5-0.1,0.6-0.3c0.2-0.2,0.3-0.5,0.4-1h2.4c-0.2,1-0.5,1.7-1.2,2.2
		S406.7,22.8,405.9,22.8z"/>
	<path class="st0" d="M416.4,21.8c-0.7,0.7-1.6,1.1-2.7,1.1s-2-0.4-2.7-1.1c-0.7-0.7-1-1.6-1-2.7c0-1.1,0.3-2,1-2.7
		c0.7-0.7,1.6-1.1,2.7-1.1s2,0.4,2.7,1.1c0.7,0.7,1,1.6,1,2.7C417.4,20.1,417.1,21,416.4,21.8z M412.8,20.7c0.2,0.4,0.5,0.6,0.9,0.6
		s0.7-0.2,0.9-0.6c0.2-0.4,0.3-0.9,0.3-1.6c0-0.7-0.1-1.2-0.3-1.6c-0.2-0.4-0.5-0.6-0.9-0.6s-0.7,0.2-0.9,0.6
		c-0.2,0.4-0.3,0.9-0.3,1.6C412.5,19.7,412.6,20.3,412.8,20.7z"/>
	<path class="st0" d="M421.1,22.6h-2.4v-7.2h2.1l0.1,1.3c0.1-0.4,0.4-0.7,0.7-1c0.3-0.3,0.7-0.4,1.2-0.4c0.1,0,0.2,0,0.4,0v2.2
		c-0.1,0-0.3-0.1-0.6-0.1c-0.5,0-0.8,0.1-1.1,0.4c-0.3,0.3-0.4,0.7-0.4,1.2V22.6z"/>
	<path class="st0" d="M427.4,22.8c-1.1,0-1.9-0.3-2.6-1c-0.7-0.6-1-1.6-1-2.8c0-1.2,0.3-2.1,1-2.8c0.7-0.7,1.5-1,2.6-1
		c1.1,0,2,0.3,2.6,1c0.6,0.7,0.9,1.6,0.9,2.8v0.5h-4.7c0.1,1.2,0.5,1.8,1.3,1.8c0.6,0,0.9-0.3,1.1-0.9h2.3c-0.2,0.8-0.6,1.4-1.2,1.8
		C429.1,22.6,428.3,22.8,427.4,22.8z M427.4,16.7c-0.3,0-0.6,0.1-0.8,0.4c-0.2,0.3-0.3,0.7-0.4,1.2h2.3
		C428.5,17.3,428.1,16.7,427.4,16.7z"/>
</g>
</svg>
