<?xml version="1.0" encoding="utf-8"?>
<!-- Generator: Adobe Illustrator 23.0.1, SVG Export Plug-In . SVG Version: 6.00 Build 0)  -->
<svg version="1.1" id="Layer_1" xmlns="http://www.w3.org/2000/svg" xmlns:xlink="http://www.w3.org/1999/xlink" x="0px" y="0px"
	 viewBox="0 0 446 55.8" style="enable-background:new 0 0 446 55.8;" xml:space="preserve">
<style type="text/css">
	.st0{fill:#FFFFFF;}
</style>
<polygon class="st0" points="223,45.8 211.7,34.5 234.3,34.5 "/>
<g>
	<path class="st0" d="M18.4,22.5h-3v-9.2h-3.3v-2.2h9.7v2.2h-3.3V22.5z"/>
	<path class="st0" d="M24.2,22.7c-0.8,0-1.5-0.2-2-0.6c-0.5-0.4-0.7-1-0.7-1.8c0-0.6,0.2-1.1,0.5-1.5c0.3-0.4,0.8-0.7,1.3-1
		c0.5-0.2,1.1-0.4,1.7-0.5c0.6-0.1,1.2-0.2,1.8-0.2V17c0-0.5-0.1-0.9-0.3-1.1c-0.2-0.3-0.5-0.4-0.8-0.4c-0.6,0-1,0.4-1.1,1.1h-2.7
		c0.1-0.9,0.6-1.6,1.3-2.1c0.7-0.5,1.6-0.8,2.7-0.8c1.3,0,2.2,0.3,2.9,1c0.6,0.6,0.9,1.6,0.9,2.9v4.9H27l-0.1-1.1
		c-0.3,0.4-0.7,0.7-1.2,1C25.2,22.6,24.7,22.7,24.2,22.7z M25.3,20.9c0.4,0,0.8-0.2,1-0.5c0.3-0.3,0.4-0.8,0.4-1.3v-0.7
		c-1.6,0-2.4,0.5-2.4,1.5c0,0.3,0.1,0.6,0.3,0.7S25,20.9,25.3,20.9z"/>
	<path class="st0" d="M34.4,26.1h-2.9V13.9h2.6l0.1,1.4c0.5-1.1,1.4-1.6,2.6-1.6c1,0,1.9,0.4,2.5,1.3c0.6,0.8,0.9,1.9,0.9,3.2
		c0,1.3-0.3,2.4-1,3.2c-0.6,0.8-1.5,1.3-2.5,1.3c-0.5,0-0.9-0.1-1.3-0.3c-0.4-0.2-0.7-0.5-1-0.9V26.1z M35.8,20.7
		c0.5,0,0.8-0.2,1-0.7s0.4-1.1,0.4-1.8c0-0.7-0.1-1.4-0.4-1.8c-0.2-0.5-0.6-0.7-1-0.7c-0.4,0-0.8,0.2-1,0.6c-0.3,0.4-0.4,1-0.4,1.7
		v0.3c0,0.7,0.1,1.3,0.4,1.7C35,20.5,35.3,20.7,35.8,20.7z"/>
	<path class="st0" d="M48.4,22.7c-1,0-1.8-0.3-2.3-0.8c-0.5-0.6-0.8-1.3-0.8-2.2v-3.8h-1.1v-1.9h1.1v-2.4h2.9v2.4h2v1.9h-2v3.8
		c0,0.7,0.3,1.1,0.9,1.1c0.3,0,0.7-0.1,1-0.2l0.4,1.8C50.1,22.6,49.3,22.7,48.4,22.7z"/>
	<path class="st0" d="M54.7,22.5h-2.9V10.6h2.9v4.5c0.5-0.9,1.3-1.4,2.4-1.4c0.9,0,1.6,0.3,2.2,0.8c0.5,0.6,0.8,1.3,0.8,2.3v5.7
		h-2.9v-5.2c0-0.5-0.1-0.8-0.3-1.1c-0.2-0.3-0.5-0.4-0.9-0.4s-0.7,0.2-1,0.5c-0.3,0.3-0.4,0.8-0.4,1.4V22.5z"/>
	<path class="st0" d="M65.8,22.7c-1.3,0-2.3-0.4-3.1-1.2c-0.8-0.8-1.2-1.9-1.2-3.3c0-1.4,0.4-2.5,1.2-3.3c0.8-0.8,1.8-1.2,3.1-1.2
		c1.3,0,2.4,0.4,3.1,1.2c0.7,0.8,1.1,1.9,1.1,3.3v0.6h-5.6c0.1,1.4,0.6,2.1,1.5,2.1c0.7,0,1.1-0.4,1.3-1.1h2.8
		c-0.2,0.9-0.7,1.7-1.4,2.1S66.9,22.7,65.8,22.7z M65.8,15.5c-0.4,0-0.7,0.2-1,0.5c-0.3,0.3-0.4,0.8-0.5,1.4h2.8
		C67,16.2,66.6,15.5,65.8,15.5z"/>
	<path class="st0" d="M78.3,22.7c-1.2,0-2.2-0.2-2.8-0.7s-1.1-1.2-1.2-2.2h2.8c0.1,0.8,0.5,1.2,1.3,1.2c0.3,0,0.6-0.1,0.8-0.2
		c0.2-0.1,0.3-0.3,0.3-0.5c0-0.5-0.4-0.8-1.1-1l-1.4-0.4c-1.6-0.4-2.3-1.3-2.3-2.5c0-0.9,0.4-1.5,1.1-2s1.6-0.7,2.8-0.7
		c1.1,0,1.9,0.2,2.5,0.7c0.6,0.5,1,1.2,1.2,2.1h-2.8c-0.1-0.7-0.4-1.1-1.1-1.1c-0.3,0-0.5,0.1-0.7,0.2c-0.2,0.1-0.2,0.3-0.2,0.6
		c0,0.4,0.3,0.7,1,0.9l1.2,0.3c1,0.2,1.7,0.6,2.1,1c0.4,0.4,0.6,0.9,0.6,1.6c0,0.9-0.3,1.6-1,2C80.5,22.5,79.6,22.7,78.3,22.7z"/>
	<path class="st0" d="M86.7,22.5h-2.9V10.6h2.9v6.7l2.4-3.4h3.1l-3.2,3.9c0.6,0.4,1.2,0.9,1.7,1.5c0.7,0.8,1.3,1.9,1.8,3.1h-3.1
		c-0.2-0.7-0.5-1.4-0.9-2c-0.5-0.7-1.1-1.3-1.7-1.7V22.5z"/>
	<path class="st0" d="M96.1,12.5c-0.3,0.3-0.7,0.5-1.1,0.5c-0.5,0-0.8-0.1-1.1-0.5c-0.3-0.3-0.5-0.7-0.5-1.1s0.2-0.8,0.5-1.1
		c0.3-0.3,0.7-0.4,1.1-0.4c0.5,0,0.8,0.1,1.1,0.4c0.3,0.3,0.5,0.7,0.5,1.1S96.4,12.2,96.1,12.5z M96.4,22.5h-2.9v-8.6h2.9V22.5z"/>
	<path class="st0" d="M101.3,22.5h-2.9V10.6h2.9V22.5z"/>
	<path class="st0" d="M106.2,22.5h-2.9V10.6h2.9V22.5z"/>
	<path class="st0" d="M116.8,22.7c-0.5,0-1-0.1-1.5-0.4c-0.5-0.3-0.8-0.7-1-1.2l-0.1,1.4h-2.6V10.6h2.9V15c0.6-0.8,1.3-1.2,2.4-1.2
		c1,0,1.9,0.4,2.5,1.3c0.6,0.8,0.9,1.9,0.9,3.2c0,1.3-0.3,2.4-1,3.2C118.7,22.3,117.9,22.7,116.8,22.7z M115.9,20.7
		c0.5,0,0.8-0.2,1-0.7s0.4-1.1,0.4-1.8c0-0.7-0.1-1.4-0.4-1.8c-0.2-0.5-0.6-0.7-1-0.7c-0.4,0-0.8,0.2-1,0.6c-0.3,0.4-0.4,1-0.4,1.7
		v0.3c0,0.7,0.1,1.3,0.4,1.7C115.1,20.5,115.5,20.7,115.9,20.7z"/>
	<path class="st0" d="M126.9,13.9h2.9v8.6h-2.6l-0.1-1.4c-0.2,0.5-0.5,0.9-1,1.2c-0.5,0.3-1,0.4-1.6,0.4c-0.8,0-1.5-0.3-2-0.8
		c-0.5-0.6-0.8-1.3-0.8-2.3v-5.7h2.9v5.2c0,0.5,0.1,0.8,0.3,1.1s0.4,0.4,0.8,0.4c0.4,0,0.6-0.2,0.9-0.5s0.4-0.8,0.4-1.4V13.9z"/>
	<path class="st0" d="M135.2,22.7c-1,0-1.8-0.3-2.3-0.8c-0.5-0.6-0.8-1.3-0.8-2.2v-3.8h-1.1v-1.9h1.1v-2.4h2.9v2.4h2v1.9h-2v3.8
		c0,0.7,0.3,1.1,0.9,1.1c0.3,0,0.7-0.1,1-0.2l0.4,1.8C136.9,22.6,136.1,22.7,135.2,22.7z"/>
	<path class="st0" d="M142,22.7c-1,0-1.8-0.3-2.3-0.8c-0.5-0.6-0.8-1.3-0.8-2.2v-3.8h-1.1v-1.9h1.1v-2.4h2.9v2.4h2v1.9h-2v3.8
		c0,0.7,0.3,1.1,0.9,1.1c0.3,0,0.7-0.1,1-0.2l0.4,1.8C143.6,22.6,142.9,22.7,142,22.7z"/>
	<path class="st0" d="M152.4,21.5c-0.8,0.8-1.9,1.3-3.2,1.3c-1.3,0-2.4-0.4-3.2-1.3c-0.8-0.8-1.2-1.9-1.2-3.2s0.4-2.4,1.2-3.2
		c0.8-0.8,1.9-1.3,3.2-1.3c1.3,0,2.4,0.4,3.2,1.3c0.8,0.8,1.2,1.9,1.2,3.2S153.2,20.6,152.4,21.5z M148.1,20.2
		c0.3,0.5,0.6,0.7,1.1,0.7c0.5,0,0.8-0.2,1.1-0.7s0.4-1.1,0.4-1.9c0-0.8-0.1-1.5-0.4-1.9c-0.3-0.5-0.6-0.7-1.1-0.7
		c-0.5,0-0.8,0.2-1.1,0.7c-0.3,0.5-0.4,1.1-0.4,1.9C147.7,19,147.8,19.7,148.1,20.2z"/>
	<path class="st0" d="M157.9,22.5h-2.9v-8.6h2.6l0.1,1.3c0.2-0.5,0.6-0.8,1-1.1c0.5-0.3,1-0.4,1.6-0.4c0.9,0,1.6,0.3,2.2,0.8
		c0.5,0.6,0.8,1.3,0.8,2.3v5.7h-2.9v-5.2c0-0.5-0.1-0.8-0.3-1.1c-0.2-0.3-0.5-0.4-0.9-0.4s-0.7,0.2-1,0.5c-0.3,0.3-0.4,0.8-0.4,1.4
		V22.5z"/>
	<path class="st0" d="M173.1,22.5h-2.9l-2.5-8.6h3l1.2,5.9l1.4-5.9h2.5l1.5,5.9l1.2-5.9h2.7l-2.5,8.6h-2.9l-1.3-4.7L173.1,22.5z"/>
	<path class="st0" d="M185.1,22.5h-2.9V10.6h2.9v4.5c0.5-0.9,1.3-1.4,2.4-1.4c0.9,0,1.6,0.3,2.2,0.8c0.5,0.6,0.8,1.3,0.8,2.3v5.7
		h-2.9v-5.2c0-0.5-0.1-0.8-0.3-1.1c-0.2-0.3-0.5-0.4-0.9-0.4s-0.7,0.2-1,0.5c-0.3,0.3-0.4,0.8-0.4,1.4V22.5z"/>
	<path class="st0" d="M196.2,22.7c-1.3,0-2.3-0.4-3.1-1.2c-0.8-0.8-1.2-1.9-1.2-3.3c0-1.4,0.4-2.5,1.2-3.3c0.8-0.8,1.8-1.2,3.1-1.2
		c1.3,0,2.4,0.4,3.1,1.2c0.7,0.8,1.1,1.9,1.1,3.3v0.6h-5.6c0.1,1.4,0.6,2.1,1.5,2.1c0.7,0,1.1-0.4,1.3-1.1h2.8
		c-0.2,0.9-0.7,1.7-1.4,2.1S197.3,22.7,196.2,22.7z M196.2,15.5c-0.4,0-0.7,0.2-1,0.5c-0.3,0.3-0.4,0.8-0.5,1.4h2.8
		C197.4,16.2,197,15.5,196.2,15.5z"/>
	<path class="st0" d="M204.7,22.5h-2.9v-8.6h2.6l0.1,1.3c0.2-0.5,0.6-0.8,1-1.1c0.5-0.3,1-0.4,1.6-0.4c0.9,0,1.6,0.3,2.2,0.8
		c0.5,0.6,0.8,1.3,0.8,2.3v5.7h-2.9v-5.2c0-0.5-0.1-0.8-0.3-1.1c-0.2-0.3-0.5-0.4-0.9-0.4s-0.7,0.2-1,0.5c-0.3,0.3-0.4,0.8-0.4,1.4
		V22.5z"/>
	<path class="st0" d="M218,12.5c-0.3,0.3-0.7,0.5-1.1,0.5c-0.5,0-0.8-0.1-1.1-0.5c-0.3-0.3-0.5-0.7-0.5-1.1s0.2-0.8,0.5-1.1
		c0.3-0.3,0.7-0.4,1.1-0.4c0.5,0,0.8,0.1,1.1,0.4c0.3,0.3,0.5,0.7,0.5,1.1S218.3,12.2,218,12.5z M218.3,22.5h-2.9v-8.6h2.9V22.5z"/>
	<path class="st0" d="M223.8,22.7c-1,0-1.8-0.3-2.3-0.8c-0.5-0.6-0.8-1.3-0.8-2.2v-3.8h-1.1v-1.9h1.1v-2.4h2.9v2.4h2v1.9h-2v3.8
		c0,0.7,0.3,1.1,0.9,1.1c0.3,0,0.7-0.1,1-0.2l0.4,1.8C225.4,22.6,224.7,22.7,223.8,22.7z"/>
	<path class="st0" d="M233.4,22.5h-2.9V10.6h2.9V22.5z"/>
	<path class="st0" d="M238.1,12.5c-0.3,0.3-0.7,0.5-1.1,0.5c-0.5,0-0.8-0.1-1.1-0.5c-0.3-0.3-0.5-0.7-0.5-1.1s0.2-0.8,0.5-1.1
		c0.3-0.3,0.7-0.4,1.1-0.4c0.5,0,0.8,0.1,1.1,0.4c0.3,0.3,0.5,0.7,0.5,1.1S238.4,12.2,238.1,12.5z M238.4,22.5h-2.9v-8.6h2.9V22.5z"
		/>
	<path class="st0" d="M244.2,26.3c-1.1,0-2-0.2-2.7-0.7c-0.7-0.5-1.2-1.2-1.3-2.1h2.7c0.1,0.4,0.2,0.6,0.5,0.8
		c0.2,0.2,0.5,0.3,0.9,0.3c1,0,1.5-0.6,1.5-1.9v-1.3c-0.6,0.8-1.3,1.2-2.3,1.2c-1.1,0-1.9-0.4-2.5-1.2c-0.6-0.8-0.9-1.9-0.9-3.2
		c0-1.3,0.3-2.4,1-3.2c0.7-0.8,1.6-1.2,2.7-1.2c0.5,0,0.9,0.1,1.4,0.4c0.4,0.3,0.8,0.6,1,1.1l0.1-1.3h2.6v7.8
		C248.5,24.8,247.1,26.3,244.2,26.3z M244.2,20.6c0.4,0,0.8-0.2,1-0.6s0.4-1,0.4-1.7V18c0-0.7-0.1-1.3-0.4-1.7
		c-0.3-0.4-0.6-0.6-1-0.6c-0.5,0-0.8,0.2-1,0.7c-0.2,0.4-0.4,1-0.4,1.7c0,0.7,0.1,1.3,0.4,1.8C243.4,20.3,243.8,20.6,244.2,20.6z"/>
	<path class="st0" d="M253.5,22.5h-2.9V10.6h2.9v4.5c0.5-0.9,1.3-1.4,2.4-1.4c0.9,0,1.6,0.3,2.2,0.8s0.8,1.3,0.8,2.3v5.7H256v-5.2
		c0-0.5-0.1-0.8-0.3-1.1c-0.2-0.3-0.5-0.4-0.9-0.4c-0.4,0-0.7,0.2-1,0.5c-0.3,0.3-0.4,0.8-0.4,1.4V22.5z"/>
	<path class="st0" d="M264.2,22.7c-1,0-1.8-0.3-2.3-0.8c-0.5-0.6-0.8-1.3-0.8-2.2v-3.8H260v-1.9h1.1v-2.4h2.9v2.4h2v1.9h-2v3.8
		c0,0.7,0.3,1.1,0.9,1.1c0.3,0,0.7-0.1,1-0.2l0.4,1.8C265.8,22.6,265.1,22.7,264.2,22.7z"/>
	<path class="st0" d="M271.1,22.7c-1.2,0-2.2-0.2-2.8-0.7c-0.7-0.5-1.1-1.2-1.2-2.2h2.8c0.1,0.8,0.5,1.2,1.3,1.2
		c0.3,0,0.6-0.1,0.8-0.2s0.3-0.3,0.3-0.5c0-0.5-0.4-0.8-1.1-1l-1.4-0.4c-1.6-0.4-2.3-1.3-2.3-2.5c0-0.9,0.4-1.5,1.1-2
		c0.7-0.5,1.6-0.7,2.8-0.7c1.1,0,1.9,0.2,2.5,0.7c0.6,0.5,1,1.2,1.2,2.1H272c-0.1-0.7-0.4-1.1-1.1-1.1c-0.3,0-0.5,0.1-0.7,0.2
		c-0.2,0.1-0.2,0.3-0.2,0.6c0,0.4,0.3,0.7,1,0.9l1.2,0.3c1,0.2,1.7,0.6,2.1,1c0.4,0.4,0.6,0.9,0.6,1.6c0,0.9-0.3,1.6-1,2
		C273.2,22.5,272.3,22.7,271.1,22.7z"/>
	<path class="st0" d="M285,13.9h2.9v8.6h-2.6l-0.1-1.4c-0.2,0.5-0.5,0.9-1,1.2c-0.5,0.3-1,0.4-1.6,0.4c-0.8,0-1.5-0.3-2-0.8
		c-0.5-0.6-0.8-1.3-0.8-2.3v-5.7h2.9v5.2c0,0.5,0.1,0.8,0.3,1.1c0.2,0.3,0.4,0.4,0.8,0.4c0.4,0,0.6-0.2,0.9-0.5s0.4-0.8,0.4-1.4
		V13.9z"/>
	<path class="st0" d="M292.8,26.1H290V13.9h2.6l0.1,1.4c0.5-1.1,1.4-1.6,2.6-1.6c1,0,1.9,0.4,2.5,1.3c0.6,0.8,0.9,1.9,0.9,3.2
		c0,1.3-0.3,2.4-1,3.2c-0.6,0.8-1.5,1.3-2.5,1.3c-0.5,0-0.9-0.1-1.3-0.3c-0.4-0.2-0.7-0.5-1-0.9V26.1z M294.2,20.7
		c0.5,0,0.8-0.2,1-0.7c0.2-0.5,0.4-1.1,0.4-1.8c0-0.7-0.1-1.4-0.4-1.8c-0.2-0.5-0.6-0.7-1-0.7c-0.4,0-0.8,0.2-1,0.6
		c-0.3,0.4-0.4,1-0.4,1.7v0.3c0,0.7,0.1,1.3,0.4,1.7C293.4,20.5,293.8,20.7,294.2,20.7z"/>
	<path class="st0" d="M302.7,15.8v-1.9h1.2c0-1.1,0.3-2,0.8-2.6c0.5-0.6,1.4-0.9,2.5-0.9c0.7,0,1.4,0.2,2,0.5l-0.4,1.7
		c-0.3-0.1-0.6-0.2-1-0.2c-0.7,0-1,0.4-1,1.3v0.3h1.8v1.9h-1.8v6.7h-2.9v-6.7H302.7z"/>
	<path class="st0" d="M316.7,21.5c-0.8,0.8-1.9,1.3-3.2,1.3s-2.4-0.4-3.2-1.3c-0.8-0.8-1.2-1.9-1.2-3.2s0.4-2.4,1.2-3.2
		c0.8-0.8,1.9-1.3,3.2-1.3s2.4,0.4,3.2,1.3s1.2,1.9,1.2,3.2S317.5,20.6,316.7,21.5z M312.4,20.2c0.3,0.5,0.6,0.7,1.1,0.7
		s0.8-0.2,1.1-0.7s0.4-1.1,0.4-1.9c0-0.8-0.1-1.5-0.4-1.9c-0.3-0.5-0.6-0.7-1.1-0.7s-0.8,0.2-1.1,0.7c-0.3,0.5-0.4,1.1-0.4,1.9
		C312,19,312.1,19.7,312.4,20.2z"/>
	<path class="st0" d="M322.3,22.5h-2.9v-8.6h2.5l0.1,1.5c0.2-0.5,0.4-0.9,0.8-1.2c0.4-0.3,0.8-0.5,1.4-0.5c0.1,0,0.2,0,0.5,0.1v2.7
		c-0.1-0.1-0.4-0.1-0.7-0.1c-0.5,0-1,0.2-1.3,0.5s-0.5,0.8-0.5,1.5V22.5z"/>
	<path class="st0" d="M331.5,22.7c-0.8,0-1.5-0.2-2-0.6c-0.5-0.4-0.7-1-0.7-1.8c0-0.6,0.2-1.1,0.5-1.5c0.3-0.4,0.8-0.7,1.3-1
		c0.5-0.2,1.1-0.4,1.7-0.5c0.6-0.1,1.2-0.2,1.8-0.2V17c0-0.5-0.1-0.9-0.3-1.1c-0.2-0.3-0.5-0.4-0.8-0.4c-0.6,0-1,0.4-1.1,1.1h-2.7
		c0.1-0.9,0.6-1.6,1.3-2.1c0.7-0.5,1.6-0.8,2.7-0.8c1.3,0,2.2,0.3,2.9,1c0.6,0.6,0.9,1.6,0.9,2.9v4.9h-2.6l-0.1-1.1
		c-0.3,0.4-0.7,0.7-1.2,1S332,22.7,331.5,22.7z M332.6,20.9c0.4,0,0.8-0.2,1-0.5c0.3-0.3,0.4-0.8,0.4-1.3v-0.7
		c-1.6,0-2.4,0.5-2.4,1.5c0,0.3,0.1,0.6,0.3,0.7S332.4,20.9,332.6,20.9z"/>
	<path class="st0" d="M345.7,22.7c-1.2,0-2.2-0.2-2.8-0.7c-0.7-0.5-1.1-1.2-1.2-2.2h2.8c0.1,0.8,0.5,1.2,1.3,1.2
		c0.3,0,0.6-0.1,0.8-0.2s0.3-0.3,0.3-0.5c0-0.5-0.4-0.8-1.1-1l-1.4-0.4c-1.6-0.4-2.3-1.3-2.3-2.5c0-0.9,0.4-1.5,1.1-2
		c0.7-0.5,1.6-0.7,2.8-0.7c1.1,0,1.9,0.2,2.5,0.7c0.6,0.5,1,1.2,1.2,2.1h-2.8c-0.1-0.7-0.4-1.1-1.1-1.1c-0.3,0-0.5,0.1-0.7,0.2
		c-0.2,0.1-0.2,0.3-0.2,0.6c0,0.4,0.3,0.7,1,0.9l1.2,0.3c1,0.2,1.7,0.6,2.1,1c0.4,0.4,0.6,0.9,0.6,1.6c0,0.9-0.3,1.6-1,2
		C347.9,22.5,346.9,22.7,345.7,22.7z"/>
	<path class="st0" d="M355,22.7c-1.3,0-2.3-0.4-3.1-1.2s-1.2-1.9-1.2-3.3c0-1.4,0.4-2.5,1.2-3.3c0.8-0.8,1.9-1.2,3.1-1.2
		c1,0,1.9,0.3,2.7,0.8c0.7,0.6,1.2,1.4,1.3,2.4h-2.9c-0.2-1-0.5-1.4-1.1-1.4c-0.4,0-0.7,0.2-1,0.6c-0.3,0.4-0.4,1.1-0.4,2
		c0,0.9,0.1,1.6,0.4,2c0.3,0.4,0.6,0.6,1,0.6c0.3,0,0.6-0.1,0.7-0.4s0.3-0.6,0.4-1.2h2.8c-0.2,1.1-0.6,2-1.4,2.6S356,22.7,355,22.7z
		"/>
	<path class="st0" d="M367.5,21.5c-0.8,0.8-1.9,1.3-3.2,1.3s-2.4-0.4-3.2-1.3c-0.8-0.8-1.2-1.9-1.2-3.2s0.4-2.4,1.2-3.2
		c0.8-0.8,1.9-1.3,3.2-1.3s2.4,0.4,3.2,1.3s1.2,1.9,1.2,3.2S368.3,20.6,367.5,21.5z M363.2,20.2c0.3,0.5,0.6,0.7,1.1,0.7
		s0.8-0.2,1.1-0.7s0.4-1.1,0.4-1.9c0-0.8-0.1-1.5-0.4-1.9c-0.3-0.5-0.6-0.7-1.1-0.7s-0.8,0.2-1.1,0.7c-0.3,0.5-0.4,1.1-0.4,1.9
		C362.8,19,363,19.7,363.2,20.2z"/>
	<path class="st0" d="M373.1,22.5h-2.9v-8.6h2.5l0.1,1.5c0.2-0.5,0.4-0.9,0.8-1.2c0.4-0.3,0.8-0.5,1.4-0.5c0.1,0,0.2,0,0.5,0.1v2.7
		c-0.1-0.1-0.4-0.1-0.7-0.1c-0.5,0-1,0.2-1.3,0.5s-0.5,0.8-0.5,1.5V22.5z"/>
	<path class="st0" d="M380.6,22.7c-1.3,0-2.3-0.4-3.1-1.2s-1.2-1.9-1.2-3.3c0-1.4,0.4-2.5,1.2-3.3c0.8-0.8,1.8-1.2,3.1-1.2
		c1.3,0,2.4,0.4,3.1,1.2c0.7,0.8,1.1,1.9,1.1,3.3v0.6h-5.6c0.1,1.4,0.6,2.1,1.5,2.1c0.7,0,1.1-0.4,1.3-1.1h2.8
		c-0.2,0.9-0.7,1.7-1.4,2.1C382.5,22.5,381.7,22.7,380.6,22.7z M380.6,15.5c-0.4,0-0.7,0.2-1,0.5c-0.3,0.3-0.4,0.8-0.5,1.4h2.8
		C381.8,16.2,381.4,15.5,380.6,15.5z"/>
	<path class="st0" d="M394.8,22.7c-0.5,0-1-0.1-1.5-0.4c-0.5-0.3-0.8-0.7-1-1.2l-0.1,1.4h-2.6V10.6h2.9V15c0.6-0.8,1.3-1.2,2.4-1.2
		s1.9,0.4,2.5,1.3c0.6,0.8,0.9,1.9,0.9,3.2c0,1.3-0.3,2.4-1,3.2C396.7,22.3,395.8,22.7,394.8,22.7z M393.9,20.7c0.5,0,0.8-0.2,1-0.7
		c0.2-0.5,0.4-1.1,0.4-1.8c0-0.7-0.1-1.4-0.4-1.8c-0.2-0.5-0.6-0.7-1-0.7c-0.4,0-0.8,0.2-1,0.6c-0.3,0.4-0.4,1-0.4,1.7v0.3
		c0,0.7,0.1,1.3,0.4,1.7C393.1,20.5,393.5,20.7,393.9,20.7z"/>
	<path class="st0" d="M406.9,21.5c-0.8,0.8-1.9,1.3-3.2,1.3s-2.4-0.4-3.2-1.3c-0.8-0.8-1.2-1.9-1.2-3.2s0.4-2.4,1.2-3.2
		c0.8-0.8,1.9-1.3,3.2-1.3s2.4,0.4,3.2,1.3s1.2,1.9,1.2,3.2S407.7,20.6,406.9,21.5z M402.6,20.2c0.3,0.5,0.6,0.7,1.1,0.7
		s0.8-0.2,1.1-0.7s0.4-1.1,0.4-1.9c0-0.8-0.1-1.5-0.4-1.9c-0.3-0.5-0.6-0.7-1.1-0.7s-0.8,0.2-1.1,0.7c-0.3,0.5-0.4,1.1-0.4,1.9
		C402.2,19,402.4,19.7,402.6,20.2z"/>
	<path class="st0" d="M416.7,21.5c-0.8,0.8-1.9,1.3-3.2,1.3s-2.4-0.4-3.2-1.3c-0.8-0.8-1.2-1.9-1.2-3.2s0.4-2.4,1.2-3.2
		c0.8-0.8,1.9-1.3,3.2-1.3s2.4,0.4,3.2,1.3s1.2,1.9,1.2,3.2S417.5,20.6,416.7,21.5z M412.4,20.2c0.3,0.5,0.6,0.7,1.1,0.7
		s0.8-0.2,1.1-0.7s0.4-1.1,0.4-1.9c0-0.8-0.1-1.5-0.4-1.9c-0.3-0.5-0.6-0.7-1.1-0.7s-0.8,0.2-1.1,0.7c-0.3,0.5-0.4,1.1-0.4,1.9
		C412.1,19,412.2,19.7,412.4,20.2z"/>
	<path class="st0" d="M422.9,22.7c-1.2,0-2.2-0.2-2.8-0.7c-0.7-0.5-1.1-1.2-1.2-2.2h2.8c0.1,0.8,0.5,1.2,1.3,1.2
		c0.3,0,0.6-0.1,0.8-0.2s0.3-0.3,0.3-0.5c0-0.5-0.4-0.8-1.1-1l-1.4-0.4c-1.6-0.4-2.3-1.3-2.3-2.5c0-0.9,0.4-1.5,1.1-2
		c0.7-0.5,1.6-0.7,2.8-0.7c1.1,0,1.9,0.2,2.5,0.7c0.6,0.5,1,1.2,1.2,2.1h-2.8c-0.1-0.7-0.4-1.1-1.1-1.1c-0.3,0-0.5,0.1-0.7,0.2
		c-0.2,0.1-0.2,0.3-0.2,0.6c0,0.4,0.3,0.7,1,0.9l1.2,0.3c1,0.2,1.7,0.6,2.1,1c0.4,0.4,0.6,0.9,0.6,1.6c0,0.9-0.3,1.6-1,2
		C425.1,22.5,424.2,22.7,422.9,22.7z"/>
	<path class="st0" d="M431.8,22.7c-1,0-1.8-0.3-2.3-0.8c-0.5-0.6-0.8-1.3-0.8-2.2v-3.8h-1.1v-1.9h1.1v-2.4h2.9v2.4h2v1.9h-2v3.8
		c0,0.7,0.3,1.1,0.9,1.1c0.3,0,0.7-0.1,1-0.2l0.4,1.8C433.4,22.6,432.7,22.7,431.8,22.7z"/>
</g>
</svg>
