<?xml version="1.0" encoding="utf-8"?>
<!-- Generator: Adobe Illustrator 23.0.1, SVG Export Plug-In . SVG Version: 6.00 Build 0)  -->
<svg version="1.1" id="Layer_1" xmlns="http://www.w3.org/2000/svg" xmlns:xlink="http://www.w3.org/1999/xlink" x="0px" y="0px"
	 viewBox="0 0 412.1 37.8" style="enable-background:new 0 0 412.1 37.8;" xml:space="preserve">
<style type="text/css">
	.st0{fill:#FFFFFF;}
</style>
<g>
	<path class="st0" d="M89.2,26.1l2.2-3.1c1.4,1.4,3.5,2.6,6.1,2.6c2.3,0,3.4-1,3.4-2.1c0-3.4-11.1-1.1-11.1-8.3
		c0-3.2,2.8-5.9,7.3-5.9c3.1,0,5.6,0.9,7.5,2.7l-2.3,3c-1.6-1.4-3.7-2.1-5.6-2.1c-1.8,0-2.8,0.8-2.8,1.9c0,3.1,11.1,1,11.1,8.2
		c0,3.5-2.5,6.2-7.7,6.2C93.7,29.2,91,27.9,89.2,26.1z"/>
	<path class="st0" d="M109.4,28.8V9.5h13.7v3.6h-9.6v4.1h9.4v3.6h-9.4v4.4h9.6v3.6H109.4z"/>
	<path class="st0" d="M127.7,28.8V9.5h4.1v15.7h8.2v3.6H127.7z"/>
	<path class="st0" d="M144.4,28.8V9.5H158v3.6h-9.6v4.1h9.4v3.6h-9.4v4.4h9.6v3.6H144.4z"/>
	<path class="st0" d="M161.8,19.2c0-5.9,4.5-10,10.3-10c4.3,0,6.7,2.3,8.1,4.7l-3.5,1.7c-0.8-1.6-2.6-2.8-4.6-2.8
		c-3.5,0-6.1,2.7-6.1,6.3s2.6,6.3,6.1,6.3c2,0,3.7-1.2,4.6-2.8l3.5,1.7c-1.4,2.4-3.8,4.8-8.1,4.8C166.3,29.2,161.8,25.1,161.8,19.2z
		"/>
	<path class="st0" d="M188.5,28.8V13.1h-5.7V9.5h15.4v3.6h-5.6v15.7H188.5z"/>
	<path class="st0" d="M211.3,28.8V9.5h9c4.2,0,6.5,2.8,6.5,6.2c0,3.4-2.3,6.2-6.5,6.2h-4.9v6.9H211.3z M222.6,15.7
		c0-1.6-1.2-2.6-2.8-2.6h-4.4v5.2h4.4C221.4,18.3,222.6,17.3,222.6,15.7z"/>
	<path class="st0" d="M230.8,28.8V9.5h4.1v15.7h8.2v3.6H230.8z"/>
	<path class="st0" d="M260.8,28.8l-1.2-3.3h-8.3l-1.2,3.3h-4.7l7.5-19.3h5.2l7.5,19.3H260.8z M255.4,13.6l-3,8.3h6L255.4,13.6z"/>
	<path class="st0" d="M272.2,28.8v-7.9l-7.5-11.4h4.7l4.8,7.8l4.8-7.8h4.7l-7.4,11.4v7.9H272.2z"/>
	<path class="st0" d="M286.9,28.8V9.5h13.7v3.6H291v4.1h9.4v3.6H291v4.4h9.6v3.6H286.9z"/>
	<path class="st0" d="M316.2,28.8l-3.8-6.9h-3v6.9h-4.1V9.5h9c4,0,6.5,2.6,6.5,6.2c0,3.4-2.1,5.2-4.2,5.7l4.3,7.4H316.2z
		 M316.6,15.7c0-1.6-1.2-2.6-2.9-2.6h-4.3v5.2h4.3C315.4,18.3,316.6,17.3,316.6,15.7z"/>
</g>
</svg>
