<?xml version="1.0" encoding="utf-8"?>
<!-- Generator: Adobe Illustrator 23.0.1, SVG Export Plug-In . SVG Version: 6.00 Build 0)  -->
<svg version="1.1" xmlns="http://www.w3.org/2000/svg" xmlns:xlink="http://www.w3.org/1999/xlink" x="0px" y="0px"
	 viewBox="0 0 516 512" style="enable-background:new 0 0 516 512;" xml:space="preserve">
<style type="text/css">
	.st0{fill:#FFFFFF;stroke:#FEBB15;stroke-width:20;stroke-miterlimit:10;}
	.st1{display:none;}
	.st2{display:inline;}
	.st3{fill:#DA1F26;}
	.st4{fill:#FEBB15;}
	.st5{display:inline;fill:#FEBB15;}
	.st6{fill:#D3D1D0;}
	.st7{fill:#E9E5E3;}
	.st8{fill:#843A22;}
	.st9{fill:#AAC33E;}
	.st10{fill:#EDC9A4;}
	.st11{fill:#E6A75D;}
</style>
<g id="Layer_1">
	<circle class="st0" cx="258" cy="256" r="231"/>
</g>
<g id="Layer_2" class="st1">
	<g class="st2">
		<path class="st3" d="M192,416.9c19.5-7.1,34.1-11.4,62.9-11.4c28.8,0,43.4,4.3,62.9,11.4l13.7-11.4
			c21.1-71.9,36.7-174.7,39.8-196.2h-28.1c-5,13.4-28.7,65.9-88.3,65.9c-59.6,0-83.3-52.6-88.3-65.9h-28.1
			c3.1,21.5,18.7,124.3,39.8,196.2L192,416.9z"/>
		<path class="st4" d="M146.2,200.5h22.5c1.5,0,2.9,1,3.4,2.4c2.2,6.5,23,63.5,82.5,63.5c59.5,0,80.3-57,82.5-63.5
			c0.5-1.4,1.8-2.4,3.4-2.4h23.7c6.9-21.4,13.4-40.3,18.8-62.6c-8.3-2.5-22.2-0.3-23,2.9c-1.4,5.4-2.2,8.2-3.7,13.6
			c-3.8-4.2-10.7-6.3-18.3-7.1c-2.1,19.1-4.2,26.1-9.2,45.5c1-24.1,2.4-37.5,6.6-62.5c-8.6-1.7-19.8-0.3-23.2,5.9
			c-2.3,14.3-3.5,22.2-4.3,34.6c-0.9-22.5-1.3-35.5-3.2-58.9c-10.9,0.9-21,5.9-22.9,12.6c0.2,3.1,0.6,8.3,0.8,11.4
			c-7.5-0.2-15.6,3.1-18.5,5.4c-3.3,16.7-3.4,26.6-8,43.7c0,0-1.9-13.2,4.5-68.1c0.4-3.3-11.9-11.6-20.5-12.8
			c-1.9,16-3.7,32-5.2,47.9c-0.9-18.8-2.3-37.8-4.4-56.9c-6.6-1.2-20.8,10.6-20.5,13.9c3.7,37.7,3.8,43.7,4,68.9
			c-3.4-22.9-4.8-31.4-7.9-45.1c-8.7,0.7-21.1,9.9-20.4,13.1c3.1,15.4,3.7,22.2,4.7,42.4c-4.3-24.4-7.4-32.2-13-56.9
			c-0.3-1.5-15.6-6.1-24.1-3.8c4.7,19.4,9.9,38.7,12,57.8c-4.8-12.5-9.3-25.3-13.4-38.5c-8.4,2.4-19.2,18.6-18.7,20.1
			C137.2,179.4,141.4,188.7,146.2,200.5L146.2,200.5z"/>
	</g>
	<path class="st5" d="M274,296.8c-8.1,0-15.3,10.8-20,27.6c-4.7-16.8-11.9-27.6-20-27.6c-14.2,0-25.7,35.8-25.7,80.1h11.4
		c0-41.1,6.4-74.3,14.3-74.3c7.9,0,14.3,30.7,14.3,68.6h11.4c0-37.9,6.4-68.6,14.3-68.6s14.3,33.3,14.3,74.3h11.4
		C299.7,332.6,288.2,296.8,274,296.8z"/>
</g>
<g id="Layer_3" class="st1">
	<g class="st2">
		<path class="st6" d="M188.3,150.2l-4,11.6c-0.5,1.4,0.4,2.9,1.7,3.1c7.9,0.9,32.7,3.2,67.8,3.2c33,0,62.5-2.4,74.3-3.6
			c2.7-0.3,4.4-3.4,3.3-6.2l-3.5-8.5c-1-2.4-3.2-3.8-5.5-3.7c-10.1,0.6-38.6,2-69.4,2c-30.8,0-52-1-60-1.5
			C191,146.7,189.1,148.1,188.3,150.2L188.3,150.2z"/>
		<path class="st4" d="M276.4,73.7L255.4,141c0.9,0.1,2.4,0.1,4.1,0.2l21.1-67.3C278.7,73.5,277.1,73.6,276.4,73.7L276.4,73.7z"/>
		<path class="st3" d="M267.2,141.2L287.3,77c-0.5-0.4-1.8-1.3-3.6-2.1l-20.8,66.4C264.4,141.3,265.9,141.3,267.2,141.2L267.2,141.2
			z"/>
		<path class="st7" d="M194.9,236.4c0,0,13.6-25.7,33.9-31.7c-0.6-10.5-1.6-27.7-1.7-30.1c-17.9-0.6-30.2-1.6-37.1-2.3L200.3,307
			l8.7,114.5c0.1,1.6,0.9,3.2,2.2,4.2c5,3.8,19.6,12.6,47.9,12.6c6.6,0,12.3-0.5,17.4-1.3c0-1.6,0-3.7,0-5.2
			c-23.3,2.5-35.4-3.7-35.9-11.4c-0.5-8.2-6.4-121.4-10.5-194.8c-15.2,15.5-28.1,72.5-28.9,92.1L194.9,236.4L194.9,236.4z"/>
		<path class="st4" d="M237.5,221.8c18.3,0,33.9,69.5,36.3,119.4c2.6,52.7,2.6,90.5,2.6,95.9c17.3-3.5,25.9-9.8,28.9-12.5
			c0.8-0.7,1.3-1.8,1.4-2.9l15.8-212.4c-10.2,8.4-26.7,70.6-26.7,70.6c-14.3-50.8-33.8-76.4-58.7-76.4c-24.9,0-42.3,32.9-42.3,32.9
			l6.3,81.4C202.1,295.1,219.3,221.8,237.5,221.8L237.5,221.8z"/>
	</g>
</g>
<g id="Layer_4">
	<g>
		<path class="st8" d="M113.5,234.8c-0.4-4.3,0-10.7,3.8-18c0.7-1.3,1.9-2.4,3.3-2.9c10.6-3.8,60.7-20.2,136.6-20.2
			c75.9,0,127.5,17.1,138.5,21.1c1.5,0.6,2.7,1.8,3.2,3.3c1.1,3.4,2.3,10.1-1.7,17.1c0,0,0,0,0,0c-5.1,0.9-6.3,0.8-9.5,0.6
			c-16.5-0.8-9.4-4.2-17.1-6.1c-5.8-1.4-8.8,0.3-15.8,0.3c-10.6,0-8.5-3.8-7.6-7.2c1-4-1.9-7.3-10.4-3.4
			c-11.6,5.3-20.4,5.6-31.4,4.9c-7.4-0.4-13.5-5.3-29.5-3.4c-13.9,1.6-21.2,5.4-26.4,6.2c-1.2,0-2.4,0-3.6,0
			c-4.7-0.7-8.4-4.3-16.9-3.2c-9.3,1.2-13.6,2.5-21.7,3.6c-9.8,1.4-18.7-6.3-27.8-6.2c-5.9,0.1-11.5,2.6-17.7,6.2
			c-4.5,2.6-8.9,4.8-18.7,5.6c-5.4,0.4-7.4-0.9-14,0.4c-5.7,1.1-9.8,3.4-12.6,5.5C115,238.4,113.7,236.8,113.5,234.8L113.5,234.8z
			 M113.4,309.4c12.4-0.8,16.9,4.5,22.4,5.5c6.2,1.2,7.4,0.8,13.5,0.9c6.3,0.1,17.2,2.6,48.7,3.6c31.9,1,45.8-5.6,77.3-8.9
			c19-2,35.7,3.8,41.5,6.2c1.4,0.6,3,0.6,4.4,0c3.5-1.5,10.3-4.3,15.2-5.3c6.9-1.4,12.2,2.2,15.9,3c3.7,0.8,5.8-2,9.7-2.4
			c8-0.8,10.3,4.4,17.1,4.3c6.8-0.1,8.3-2.1,11.4-2.8c2.7-0.6,6.3,0.1,8.9,1c1.7-0.9,2.9-2.6,2.9-4.7c-0.1-7.9-2.7-14-4.7-17.5
			c-1.3-2.3-3.8-3.8-6.5-4c-77.5-4.9-240.6-1.8-267.9-1.2c-2.6,0-4.9,1.4-6.2,3.6c-4.2,7.3-4.5,13.6-4,17.4
			C113.2,308.6,113.3,309,113.4,309.4L113.4,309.4z"/>
		<path class="st4" d="M283.6,331.2c-39.9,2.9-46.9,58.1-58,40s-20.4-32-49.7-37c-13.8-2.3-19.8-7.5-19.7-9
			c0.2-3.3,8.1-3.5,18.5-1.9c49.4,7.6,70.3-3.9,93.9-6.2c15.5-1.6,30.1-0.6,41.4,2.2c0.7,0.2,0.6,1.1-0.1,1.2
			C294,322.2,292.4,330.6,283.6,331.2z"/>
		<path class="st9" d="M383.5,334.2C383.4,334.1,383.4,334.2,383.5,334.2L383.5,334.2z M106,333.6c-0.4,1.1,0.5,2.4,1.6,2.2
			c11.9-2,10.6,5.1,18.5,7.2c4.2,1.1,11.4-0.3,16.4-1.2c16-2.8,14.2,5.3,26,5.1c5.6-0.1,11-2.2,13.1-3.2c1-0.5,0.9-1.8-0.2-2.2
			c-8.2-2.8-32.9-3.3-33.5-17.6c0-1.1-1-1.8-2.1-1.6c-4.7,0.6-12,1-22.2-5.5c-9.4-6-18.2-0.9-20.8,1.1c-0.3,0.3-0.2,0.9,0.2,0.9
			c6.1-0.1,13.4,3.8,8.5,7.7C108.3,329,106.7,331.7,106,333.6L106,333.6z M341.5,316.9c-8.3-1.5-16,5.3-20,7.4
			c-3.5,1.8-8.6,1.6-11,1.4c-0.4,0-0.6,0.4-0.3,0.7c1.4,1.2,4,2.9,8.7,3.7c5.8,0.9,12.9-1,15.8-1.2c8.6-0.4,9.3,12.5,23,13.1
			c10.7,0.4,12.7-12.8,32.7-4.1c11.9,5.2,21-5.4,24.3-10.1c0.5-0.7-0.2-1.6-1-1.4c-13.1,3.3-12.8-6.7-21.6-7
			c-6.7-0.2-7,7.5-24.7-0.2c-4.9-2.1-6.2,1.3-13,1.7C348.8,321.2,349.9,318.5,341.5,316.9L341.5,316.9z M341.4,224.4
			c0.2-0.6-0.4-1.1-0.9-0.8c-7.3,4-25.7,7.6-35.6,6.7c-5.7-0.5-12.8-5.1-20-5.3c-12.6-0.5-22.5,4.2-32.6,8.4c-0.5,0.2-0.3,1,0.2,1
			c2.7-0.1,6.6,0.1,10.2,1.3c6.1,2,14.2,9,24,9.6s14.1-1.5,17.5-2c6-1,9.1,2,14.2,5.2c8.2,5.1,25.6,4,32.8,0.2
			c6.4-3.4,12.1-11.4,15.8-14.2c0.6-0.4,0.2-1.3-0.5-1.2c-8.4,1.6-17.4,1.7-23.2-0.8C338.6,230.4,340.4,226.9,341.4,224.4
			L341.4,224.4z M178,225.6c-6.8,0.1-13.4,7.1-17.8,9c-3.1,1.3-8.3,1.9-10.4,2c-0.3,0-0.4,0.4-0.2,0.6c5.4,3.8,12.4,7.1,18,6.2
			c18.2-3.1,24.6,6.7,31.8,7.2c11,0.7,15.1-4,23.1-1.2c5.4,1.9,8.8,0.7,13.1-2.9c6.9-5.7,9.4-3.4,16.4-6.2c0.9-0.4,0.8-1.7-0.2-1.8
			c-1.9-0.3-4.2-0.9-6.2-2.3c-4.4-3-8.1-6.4-15.8-6.5c-9.1-0.1-7.8,3.1-26.3,3.8C193.7,233.7,188.6,225.4,178,225.6L178,225.6z
			 M136.9,256.7c2.5-2.7,7-8,15.7-9.9c0.7-0.1,1-1.1,0.4-1.6c-3.5-2.7-12.5-8.8-22-7.5c-14.8,2.1-13.7,14.3-25.8,13.6
			c-2.9-0.2-4.9-0.8-6.3-1.6c-0.7-0.4-1.5,0.2-1.3,1c1.3,4.5,4.9,12.9,13.5,12.4c6.3-0.4,7.6-3.4,11.8-4
			C127.1,258.6,130.8,263.3,136.9,256.7L136.9,256.7z M365,259.7c12.5,0.4,16.9-7.6,33.4-1.1c7.7,3.1,17.1,0.1,20-5.6
			c0.3-0.5-0.2-1.2-0.7-0.9c-3.7,1.7-13.7,3.6-11.9-4.5c0.6-2.7-0.1-6.1-6.5-5.6c-5.6,0.5-7.6,1.6-11.5,0.9
			c-3.8-0.7-5.9-3.7-13.6-3.7c-10.8,0.1-12.6,14.3-27.4,14.6c-0.6,0-0.8,0.7-0.3,1C349.3,256.5,355.6,259.4,365,259.7L365,259.7z"/>
		<path class="st10" d="M186.9,251.3c0.3,0.1,0.3,0.5,0,0.6c-6,1.8-10.5,10.1-20,10.1c-11.6-0.1-14.8-5.4-22.1-6.5
			c-0.3-0.1-0.4-0.5,0-0.6c2-0.5,5.4-1.4,8.1-2.5c4.3-1.8,9.7-5.2,16-5C175.8,247.5,184.1,250.3,186.9,251.3L186.9,251.3z
			 M305.9,247.5c-31.6,9.5-29.9-7.9-48.3-4.9c-3,0.5-7,4.8-13.6,4.9c-3.4,0-4.1,2.1-4.4,2.9c-0.9,3,5.4,1.4,15.6,6.9
			c5.1,2.7,7.5,7.6,12.3,7.8c6.5,0.2,10.9-5.9,15.2-6.2c5.1-0.4,7,0.3,11.8-0.4C301.9,257.2,312.3,245.6,305.9,247.5L305.9,247.5z
			 M271,341.4c2,1,14.5-0.7,22.1,2.6c7.7,3.3,10.6,7,15.9,7.4c10.9,0.7,11.6-11.4,21-13.3c8.6-1.7,5-5.9-6.7-2.8
			c-12.5,3.3-12.3-6.2-21.6-5.5c-5.6,0.5-6.3,7.3-20.3,6.8C273.3,336.5,268.8,340.3,271,341.4L271,341.4z"/>
		<path class="st11" d="M366.6,139.9c-29.4-18.8-64.8-32.9-109.1-32.9s-79.7,14.1-109.1,32.9c-34.2,21.9-46.3,56.7-34.6,70.2
			c0.7,0.8,1.7,1.1,2.7,0.7c31.6-12.4,82.2-25,141-24.4c59-0.6,109.8,12.1,141.3,24.5c0.7,0.3,1.5,0.1,2-0.4
			C413.1,197.4,401.1,162.1,366.6,139.9L366.6,139.9z M279.8,120.9c5.2,1.4,0.1,8.3-2.3,11.1c-0.5,0.5-1.3,0.3-1.4-0.4
			C275.4,127.9,274.4,119.4,279.8,120.9z M152.2,181.3c-0.6,0.4-1.3-0.1-1.2-0.8c0.6-3.7,2.5-12.1,7.1-8.9
			C162.5,174.7,155.4,179.5,152.2,181.3L152.2,181.3z M170.7,150.5c-3.7-0.5-12.2-2.1-9.1-6.8c2.9-4.5,7.9,2.4,9.9,5.6
			C171.9,149.9,171.4,150.6,170.7,150.5z M194,172.9c-5.4-0.7-1.2-8.2,0.8-11.3c0.4-0.6,1.3-0.5,1.5,0.2
			C197.4,165.3,199.6,173.7,194,172.9L194,172.9z M200.9,137.9c-5.4,0.3-2.7-7.8-1.3-11.3c0.3-0.6,1.2-0.7,1.5-0.1
			C202.9,129.8,206.5,137.6,200.9,137.9z M215.4,154.2c-0.4,0.6-1.3,0.4-1.5-0.3c-0.9-3.6-2.6-12.1,3-11
			C222.2,144,217.6,151.2,215.4,154.2z M237.8,174.4c-3.6-1-11.7-3.8-8-8c3.6-4.1,7.5,3.5,9,6.9
			C239.1,173.9,238.5,174.6,237.8,174.4z M231,127.7c-0.7-0.1-1-0.9-0.5-1.4c2.6-2.7,9.1-8.4,10.9-3.1
			C243.3,128.3,234.8,128,231,127.7z M252.7,154.6c-0.7,0.2-1.3-0.4-1-1.1c1.4-3.5,5.1-11.2,8.9-7
			C264.2,150.4,256.2,153.5,252.7,154.6L252.7,154.6z M284,166.1c-1.5,3.4-5.5,11.1-9.1,6.8c-3.5-4.1,4.6-6.9,8.1-7.9
			C283.7,164.8,284.3,165.5,284,166.1L284,166.1z M304.6,156.6c-0.4,0.6-1.3,0.5-1.5-0.2c-1.2-3.5-3.4-11.9,2.2-11.1
			C310.7,146,306.6,153.5,304.6,156.6z M318.3,134.6c-3.3,4.3-7.7-3-9.4-6.3c-0.3-0.6,0.2-1.3,0.9-1.2
			C313.4,127.9,321.7,130.2,318.3,134.6L318.3,134.6z M329.3,173.2c-4.9,2.3-5.5-6.2-5.6-9.9c0-0.7,0.8-1.1,1.3-0.6
			C328,165,334.3,170.8,329.3,173.2L329.3,173.2z M344.3,149.4c-3-2.3-9.5-7.9-4.4-10.5c4.8-2.4,5.6,6.1,5.7,9.8
			C345.6,149.4,344.8,149.8,344.3,149.4z M369.2,170.2c-2,3.2-7,10.2-10,5.4c-2.9-4.6,5.5-6.2,9.2-6.7
			C369.1,168.9,369.6,169.6,369.2,170.2z M399.8,265.4c0.2,2,0.2,4.7-0.7,7.7c-0.9,2.9-2.5,5.3-3.8,7c-1.3,1.6-3.4,2.5-5.7,2.4
			c-127.8-5.6-246.8-1.3-267-0.5c-2,0.1-4-0.8-5.1-2.2c-1-1.3-2.2-3.1-2.9-5.1c-0.9-2.5-1.2-5.1-1.3-7c2.3-0.7,5.5-1.8,7.6-2.4
			c2.8-0.7,6.2,0.4,10.8-0.5c4.6-1,9.8-4.9,13.3-4.3c3.5,0.6,10,6.9,21.1,6.1c11.1-0.9,17.3-6.1,19.9-8.1c2.6-1.9,6.2-2.5,12.7-1.7
			s13.4-2.6,17.1-3c3.7-0.3,7.4,1.9,11.2,2.2c3.8,0.3,6.9-1,9.2-1c2.3,0.1,11.7,4.8,15.5,6.1c3.8,1.4,8.3,8.4,15.6,8.5
			c7.4,0.1,12.6-4,15.3-5.1c2.7-1.1,6.1-0.2,14-1.9c7.9-1.8,11.6-5.5,13.4-7.7c4.3-5.4,10.3,2,20.7,2.1c11.6,0.1,18,4.8,27.2,7
			c9.1,2.1,20.5,0.1,26.3-1.8C389.7,260.2,395.8,262.8,399.8,265.4L399.8,265.4z M223,380c-52.9-3-83.7-12-95.8-16.3
			c-4.1-1.5-7.3-4.7-8.8-8.8c-1.2-3.2-2.3-7.4-2.9-12c3.8,2.4,9.1,6.1,16.8,5.6c8.9-0.6,14.6-3.4,19.9-1.7
			c5.3,1.8,12.5,7.4,20.8,5.4c7.7-1.8,12.2-3.7,17.9-7.9c0.9-0.6,2-0.6,2.9-0.1c3.4,2.2,11.8,8.3,19,19.7
			C218,372.3,221,377.2,223,380L223,380z M398.3,343.7c-0.6,3-1.4,6.7-2.5,10.5c-1.3,4.2-4.4,7.5-8.4,9.1
			c-14.1,5.5-53.6,17.7-128,17.7c-7.9,0-15.3-0.1-22.4-0.4c1.2-1.1,2.4-2.5,3.6-4.3c5.3-8.1,14.9-27.1,22.5-28.9
			c7.3-1.8,21.8-0.4,29,3s13.3,7.2,21.1,6.2c11.7-1.4,12.9-13.4,20.9-13.6c3.4-0.1,4.9,0.1,11.5,3.1c6,2.7,15.3,3.3,22.1-0.1
			c8.8-4.4,7.8-5.8,13-5.6C385.7,340.6,389.3,344,398.3,343.7L398.3,343.7z"/>
	</g>
</g>
</svg>
