<?xml version="1.0" encoding="utf-8"?>
<!-- Generator: Adobe Illustrator 23.0.1, SVG Export Plug-In . SVG Version: 6.00 Build 0)  -->
<svg version="1.1" xmlns="http://www.w3.org/2000/svg" xmlns:xlink="http://www.w3.org/1999/xlink" x="0px" y="0px"
	 viewBox="0 0 160.6 49.6" style="enable-background:new 0 0 160.6 49.6;" xml:space="preserve">
<style type="text/css">
	.st0{fill:#FFFFFF;}
	.st1{display:none;}
	.st2{display:inline;fill:#FFFFFF;}
	.st3{font-family:'Speedee-Bold';}
	.st4{font-size:13.7083px;}
	.st5{font-size:27.967px;}
	.st6{display:inline;}
</style>
<g id="Layer_1">
	<g>
		<path class="st0" d="M45.6,15.3h-2.4V7.9h-2.7V6.1h7.8v1.8h-2.7V15.3z"/>
		<path class="st0" d="M50.2,15.5c-0.6,0-1.2-0.2-1.6-0.5s-0.6-0.8-0.6-1.4c0-0.5,0.1-0.9,0.4-1.2s0.6-0.6,1-0.8
			c0.4-0.2,0.9-0.3,1.4-0.4c0.5-0.1,0.9-0.1,1.5-0.1v-0.2c0-0.4-0.1-0.7-0.2-0.9s-0.4-0.3-0.7-0.3c-0.5,0-0.8,0.3-0.9,0.9h-2.2
			c0.1-0.7,0.5-1.3,1-1.7c0.6-0.4,1.3-0.6,2.2-0.6c1,0,1.8,0.3,2.3,0.8s0.8,1.3,0.8,2.3v4h-2.1l-0.1-0.9c-0.2,0.3-0.6,0.6-1,0.8
			C51.1,15.4,50.7,15.5,50.2,15.5z M51.2,14c0.3,0,0.6-0.1,0.8-0.4s0.3-0.6,0.3-1.1V12c-1.3,0-1.9,0.4-1.9,1.2
			c0,0.3,0.1,0.5,0.2,0.6C50.7,14,50.9,14,51.2,14z"/>
		<path class="st0" d="M58.5,18.2h-2.3V8.4h2.1l0.1,1.1c0.4-0.9,1.1-1.3,2.1-1.3c0.8,0,1.5,0.3,2,1c0.5,0.7,0.8,1.6,0.8,2.6
			c0,1.1-0.3,1.9-0.8,2.6c-0.5,0.7-1.2,1-2.1,1c-0.4,0-0.7-0.1-1.1-0.3c-0.3-0.2-0.6-0.4-0.8-0.7V18.2z M59.6,13.8
			c0.4,0,0.6-0.2,0.8-0.6c0.2-0.4,0.3-0.9,0.3-1.5s-0.1-1.1-0.3-1.5C60.2,10,60,9.8,59.6,9.8c-0.4,0-0.6,0.2-0.8,0.5
			c-0.2,0.3-0.3,0.8-0.3,1.4V12c0,0.6,0.1,1.1,0.3,1.4C59,13.7,59.2,13.8,59.6,13.8z"/>
		<path class="st0" d="M69.8,15.5c-0.8,0-1.4-0.2-1.9-0.7c-0.4-0.5-0.6-1.1-0.6-1.8V9.9h-0.9V8.4h0.9V6.4h2.3v1.9h1.6v1.5h-1.6v3.1
			c0,0.6,0.3,0.9,0.8,0.9c0.3,0,0.5-0.1,0.8-0.2l0.4,1.4C71.1,15.3,70.6,15.5,69.8,15.5z"/>
		<path class="st0" d="M74.9,15.3h-2.3V5.7h2.3v3.6c0.4-0.7,1.1-1.1,2-1.1c0.7,0,1.3,0.2,1.7,0.7c0.4,0.5,0.6,1.1,0.6,1.8v4.6h-2.3
			v-4.2c0-0.4-0.1-0.7-0.2-0.9C76.5,10,76.3,9.9,76,9.9s-0.6,0.1-0.8,0.4c-0.2,0.3-0.3,0.6-0.3,1.1V15.3z"/>
		<path class="st0" d="M82.9,7.2c-0.3,0.2-0.6,0.4-0.9,0.4c-0.4,0-0.7-0.1-0.9-0.4c-0.3-0.2-0.4-0.5-0.4-0.9c0-0.3,0.1-0.6,0.4-0.9
			c0.3-0.2,0.6-0.4,0.9-0.4c0.4,0,0.7,0.1,0.9,0.4c0.3,0.2,0.4,0.5,0.4,0.9C83.3,6.7,83.1,7,82.9,7.2z M83.1,15.3h-2.3V8.4h2.3V15.3
			z"/>
		<path class="st0" d="M87.6,15.5c-1,0-1.7-0.2-2.3-0.6c-0.6-0.4-0.9-1-1-1.8h2.3c0.1,0.7,0.4,1,1,1c0.3,0,0.5-0.1,0.6-0.2
			c0.2-0.1,0.2-0.3,0.2-0.4c0-0.4-0.3-0.6-0.9-0.8l-1.2-0.3c-1.3-0.3-1.9-1-1.9-2c0-0.7,0.3-1.2,0.9-1.6s1.3-0.6,2.2-0.6
			c0.9,0,1.5,0.2,2,0.6c0.5,0.4,0.8,0.9,1,1.7h-2.2c-0.1-0.6-0.4-0.9-0.8-0.9c-0.2,0-0.4,0.1-0.5,0.2c-0.1,0.1-0.2,0.3-0.2,0.5
			c0,0.4,0.3,0.6,0.8,0.7l1,0.2c0.8,0.2,1.3,0.5,1.7,0.8s0.5,0.7,0.5,1.3c0,0.7-0.3,1.3-0.8,1.7C89.4,15.3,88.6,15.5,87.6,15.5z"/>
		<path class="st0" d="M97.6,15.5c-1,0-1.7-0.2-2.3-0.6c-0.6-0.4-0.9-1-1-1.8h2.3c0.1,0.7,0.4,1,1,1c0.3,0,0.5-0.1,0.6-0.2
			c0.2-0.1,0.2-0.3,0.2-0.4c0-0.4-0.3-0.6-0.9-0.8l-1.2-0.3c-1.3-0.3-1.9-1-1.9-2c0-0.7,0.3-1.2,0.9-1.6s1.3-0.6,2.2-0.6
			c0.9,0,1.5,0.2,2,0.6c0.5,0.4,0.8,0.9,1,1.7h-2.2c-0.1-0.6-0.4-0.9-0.8-0.9c-0.2,0-0.4,0.1-0.5,0.2c-0.1,0.1-0.2,0.3-0.2,0.5
			c0,0.4,0.3,0.6,0.8,0.7l1,0.2c0.8,0.2,1.3,0.5,1.7,0.8s0.5,0.7,0.5,1.3c0,0.7-0.3,1.3-0.8,1.7C99.3,15.3,98.6,15.5,97.6,15.5z"/>
		<path class="st0" d="M104.1,7.2c-0.3,0.2-0.6,0.4-0.9,0.4c-0.4,0-0.7-0.1-0.9-0.4c-0.3-0.2-0.4-0.5-0.4-0.9c0-0.3,0.1-0.6,0.4-0.9
			c0.3-0.2,0.6-0.4,0.9-0.4c0.4,0,0.7,0.1,0.9,0.4c0.3,0.2,0.4,0.5,0.4,0.9C104.5,6.7,104.3,7,104.1,7.2z M104.3,15.3H102V8.4h2.3
			V15.3z"/>
		<path class="st0" d="M108.4,8.2c0.4,0,0.7,0.1,1.1,0.3c0.3,0.2,0.6,0.4,0.8,0.7V5.7h2.3v9.6h-2.1l-0.1-1.1
			c-0.4,0.9-1.1,1.3-2.1,1.3c-0.8,0-1.5-0.3-2-1c-0.5-0.7-0.8-1.6-0.8-2.6c0-1.1,0.3-1.9,0.8-2.6C106.8,8.5,107.5,8.2,108.4,8.2z
			 M109.1,9.8c-0.4,0-0.6,0.2-0.8,0.6c-0.2,0.4-0.3,0.9-0.3,1.5s0.1,1.1,0.3,1.5c0.2,0.4,0.5,0.6,0.8,0.6c0.3,0,0.6-0.2,0.8-0.5
			c0.2-0.3,0.3-0.8,0.3-1.4v-0.2c0-0.6-0.1-1-0.3-1.4C109.7,10,109.4,9.8,109.1,9.8z"/>
		<path class="st0" d="M117.2,15.5c-1,0-1.9-0.3-2.5-0.9s-1-1.5-1-2.7c0-1.1,0.3-2,0.9-2.6c0.6-0.7,1.5-1,2.5-1c1.1,0,1.9,0.3,2.5,1
			s0.9,1.6,0.9,2.7v0.5H116c0.1,1.1,0.5,1.7,1.2,1.7c0.6,0,0.9-0.3,1-0.9h2.2c-0.2,0.8-0.6,1.3-1.1,1.7S118.1,15.5,117.2,15.5z
			 M117.2,9.6c-0.3,0-0.6,0.1-0.8,0.4c-0.2,0.3-0.3,0.7-0.4,1.2h2.2C118.2,10.2,117.8,9.6,117.2,9.6z"/>
	</g>
	<g>
		<path class="st0" d="M31.2,38.4c-1.6-1.8-2.5-4.2-2.5-7.1c0-2.9,0.8-5.3,2.5-7.1c1.7-1.8,4-2.7,6.9-2.7c2.2,0,4,0.6,5.5,1.7
			c1.4,1.1,2.4,2.8,2.9,4.9h-5.2C40.8,26,39.7,25,38.1,25c-1.4,0-2.4,0.6-3.1,1.7c-0.7,1.1-1.1,2.7-1.1,4.6c0,2,0.4,3.5,1.1,4.6
			c0.7,1.1,1.8,1.7,3.1,1.7c2.1,0,3.4-1.1,3.8-3.3h-3.4v-3.5h8.3V32c0,2.6-0.8,4.8-2.3,6.5c-1.5,1.7-3.7,2.6-6.5,2.6
			C35.1,41.1,32.9,40.2,31.2,38.4z"/>
		<path class="st0" d="M61.3,38.9c-1.3,1.4-3.1,2.1-5.3,2.1c-2.2,0-4-0.7-5.3-2.1c-1.3-1.4-2-3.2-2-5.3c0-2.2,0.7-3.9,2-5.3
			c1.3-1.4,3.1-2.1,5.3-2.1c2.2,0,4,0.7,5.3,2.1c1.3,1.4,2,3.2,2,5.3C63.2,35.8,62.6,37.5,61.3,38.9z M54.2,36.8
			c0.4,0.8,1,1.2,1.7,1.2c0.7,0,1.3-0.4,1.7-1.2c0.4-0.8,0.6-1.8,0.6-3.2c0-1.3-0.2-2.4-0.6-3.2c-0.4-0.8-1-1.2-1.7-1.2
			c-0.7,0-1.3,0.4-1.7,1.2c-0.4,0.8-0.6,1.8-0.6,3.2C53.6,35,53.8,36,54.2,36.8z"/>
		<path class="st0" d="M76,40.7h-4.8V26.6h4.2l0.2,2.5c0.3-0.8,0.7-1.4,1.3-1.9c0.6-0.5,1.4-0.8,2.3-0.8c0.1,0,0.4,0,0.8,0.1v4.4
			c-0.2-0.1-0.6-0.1-1.1-0.1c-0.9,0-1.6,0.3-2.2,0.8C76.3,32,76,32.9,76,33.9V40.7z"/>
		<path class="st0" d="M86.5,24.2c-0.5,0.5-1.1,0.7-1.9,0.7c-0.7,0-1.4-0.2-1.9-0.7c-0.5-0.5-0.8-1.1-0.8-1.8s0.3-1.3,0.8-1.8
			c0.5-0.5,1.1-0.7,1.9-0.7c0.7,0,1.4,0.2,1.9,0.7c0.5,0.5,0.8,1.1,0.8,1.8S87,23.7,86.5,24.2z M87,40.7h-4.8V26.6H87V40.7z"/>
		<path class="st0" d="M96.5,46.9c-1.8,0-3.3-0.4-4.5-1.2s-1.9-2-2.2-3.5h4.5c0.1,0.6,0.4,1.1,0.8,1.4c0.4,0.3,0.9,0.5,1.5,0.5
			c1.6,0,2.4-1,2.4-3.1v-2.1c-0.9,1.3-2.2,2-3.8,2c-1.7,0-3.1-0.7-4.2-2c-1-1.4-1.6-3.1-1.6-5.3s0.5-3.9,1.6-5.2s2.6-2,4.4-2
			c0.8,0,1.5,0.2,2.2,0.6c0.7,0.4,1.3,1,1.6,1.8l0.1-2.1h4.3v12.9C103.7,44.4,101.3,46.9,96.5,46.9z M96.7,37.5c0.7,0,1.3-0.3,1.7-1
			c0.4-0.7,0.6-1.6,0.6-2.8v-0.5c0-1.2-0.2-2.1-0.7-2.7c-0.4-0.7-1-1-1.7-1c-0.7,0-1.3,0.4-1.7,1.1c-0.4,0.7-0.6,1.7-0.6,2.9
			c0,1.2,0.2,2.2,0.6,2.9C95.3,37.1,95.9,37.5,96.7,37.5z"/>
		<path class="st0" d="M111.8,40.7h-4.8V21.1h4.8v7.4c0.9-1.5,2.2-2.2,4-2.2c1.5,0,2.7,0.5,3.6,1.4c0.9,0.9,1.3,2.2,1.3,3.7v9.3
			h-4.8V32c0-0.8-0.2-1.4-0.5-1.8c-0.3-0.4-0.8-0.6-1.4-0.6c-0.6,0-1.1,0.3-1.6,0.8c-0.4,0.5-0.6,1.3-0.6,2.3V40.7z"/>
		<path class="st0" d="M129.5,41c-1.7,0-2.9-0.5-3.8-1.4c-0.9-0.9-1.3-2.2-1.3-3.7v-6.3h-1.8v-3.1h1.8v-4h4.8v4h3.3v3.1h-3.3v6.2
			c0,1.2,0.5,1.8,1.5,1.8c0.6,0,1.1-0.1,1.6-0.3l0.7,2.9C132.1,40.8,130.9,41,129.5,41z"/>
	</g>
</g>
<g id="Layer_3" class="st1">
	<text transform="matrix(1 0 0 1 40.3017 15.2843)" class="st2 st3 st4">Tap this side</text>
	<text transform="matrix(1 0 0 1 35.5946 40.6564)" class="st2 st3 st5">Go left</text>
</g>
<g id="Layer_2" class="st1">
	<g class="st6">
		<g>
			<path class="st0" d="M4.9,35.3c0-6.4,4.8-10.4,10.8-10.4c4.2,0,6.8,2.1,8.3,4.5l-3.5,1.9c-0.9-1.4-2.7-2.6-4.8-2.6
				c-3.7,0-6.4,2.8-6.4,6.6s2.7,6.6,6.4,6.6c1.8,0,3.4-0.8,4.3-1.5v-2.4h-5.3v-3.8h9.6v7.7c-2.1,2.3-4.9,3.8-8.6,3.8
				C9.7,45.7,4.9,41.6,4.9,35.3z"/>
			<path class="st0" d="M28.2,35.3c0-6.1,4.4-10.4,10.6-10.4c6.1,0,10.5,4.4,10.5,10.4c0,6.1-4.4,10.4-10.5,10.4
				C32.6,45.7,28.2,41.3,28.2,35.3z M44.8,35.3c0-3.8-2.4-6.6-6.1-6.6c-3.8,0-6.1,2.8-6.1,6.6c0,3.8,2.4,6.6,6.1,6.6
				C42.5,41.9,44.8,39,44.8,35.3z"/>
			<path class="st0" d="M74.5,45.3l-4-7.2h-3.1v7.2h-4.3V25.2h9.4c4.2,0,6.8,2.8,6.8,6.5c0,3.5-2.3,5.5-4.4,6l4.6,7.7H74.5z
				 M74.9,31.6c0-1.7-1.3-2.7-3-2.7h-4.5v5.4h4.5C73.6,34.4,74.9,33.4,74.9,31.6z"/>
			<path class="st0" d="M84.1,45.3V25.2h4.3v20.2H84.1z"/>
			<path class="st0" d="M92.9,35.3c0-6.4,4.8-10.4,10.8-10.4c4.2,0,6.8,2.1,8.3,4.5l-3.5,1.9c-0.9-1.4-2.7-2.6-4.8-2.6
				c-3.7,0-6.4,2.8-6.4,6.6s2.7,6.6,6.4,6.6c1.8,0,3.4-0.8,4.3-1.5v-2.4h-5.3v-3.8h9.6v7.7c-2.1,2.3-4.9,3.8-8.6,3.8
				C97.7,45.7,92.9,41.6,92.9,35.3z"/>
			<path class="st0" d="M131,45.3v-8.5h-9.5v8.5h-4.3V25.2h4.3v7.9h9.5v-7.9h4.3v20.2H131z"/>
			<path class="st0" d="M145.5,45.3V28.9h-5.9v-3.8h16.1v3.8h-5.9v16.4H145.5z"/>
		</g>
		<g>
			<path class="st0" d="M25.5,12.8V5.7H23V4.8H29v0.9h-2.5v7.1H25.5z"/>
			<path class="st0" d="M30.9,8.9c0-2.4,1.6-4.1,4-4.1c2.4,0,4,1.8,4,4.1s-1.6,4.1-4,4.1C32.5,13,30.9,11.2,30.9,8.9z M37.8,8.9
				c0-1.9-1.2-3.3-2.9-3.3c-1.8,0-2.9,1.4-2.9,3.3c0,1.9,1.1,3.3,2.9,3.3C36.7,12.1,37.8,10.7,37.8,8.9z"/>
			<path class="st0" d="M41.6,9.7V4.8h1v4.9c0,1.5,0.8,2.4,2.3,2.4s2.3-0.9,2.3-2.4V4.8h1v4.9c0,2-1.1,3.3-3.3,3.3
				S41.6,11.7,41.6,9.7z"/>
			<path class="st0" d="M50.9,8.9c0-2.5,1.8-4.1,4.1-4.1c1.4,0,2.4,0.7,3,1.6l-0.8,0.5c-0.5-0.7-1.3-1.2-2.2-1.2
				c-1.8,0-3.1,1.3-3.1,3.3c0,1.9,1.3,3.3,3.1,3.3c0.9,0,1.7-0.5,2.2-1.2l0.9,0.5c-0.7,0.9-1.6,1.6-3,1.6
				C52.7,13,50.9,11.3,50.9,8.9z"/>
			<path class="st0" d="M66.2,12.8V9.2h-4.7v3.7h-1v-8h1v3.4h4.7V4.8h1v8H66.2z"/>
			<path class="st0" d="M76.5,12.8V5.7H74V4.8h6.1v0.9h-2.5v7.1H76.5z"/>
			<path class="st0" d="M88.3,12.8V9.2h-4.7v3.7h-1v-8h1v3.4h4.7V4.8h1v8H88.3z"/>
			<path class="st0" d="M92.3,12.8v-8h1v8H92.3z"/>
			<path class="st0" d="M95.9,11.7l0.6-0.8c0.5,0.6,1.4,1.1,2.5,1.1c1.4,0,1.9-0.8,1.9-1.4c0-2.1-4.7-0.9-4.7-3.8
				c0-1.3,1.2-2.2,2.7-2.2c1.2,0,2.2,0.4,2.8,1.1l-0.6,0.7c-0.6-0.7-1.4-1-2.3-1c-1,0-1.6,0.5-1.6,1.3c0,1.8,4.7,0.8,4.7,3.8
				c0,1.2-0.8,2.4-3,2.4C97.6,13,96.6,12.5,95.9,11.7z"/>
			<path class="st0" d="M108.5,11.7L109,11c0.5,0.6,1.4,1.1,2.5,1.1c1.4,0,1.9-0.8,1.9-1.4c0-2.1-4.7-0.9-4.7-3.8
				c0-1.3,1.2-2.2,2.7-2.2c1.2,0,2.2,0.4,2.8,1.1l-0.6,0.7c-0.6-0.7-1.4-1-2.3-1c-1,0-1.6,0.5-1.6,1.3c0,1.8,4.7,0.8,4.7,3.8
				c0,1.2-0.8,2.4-3,2.4C110.1,13,109.1,12.5,108.5,11.7z"/>
			<path class="st0" d="M117.2,12.8v-8h1v8H117.2z"/>
			<path class="st0" d="M121.2,12.8v-8h2.7c2.5,0,4.1,1.7,4.1,4c0,2.3-1.6,4-4.1,4H121.2z M127,8.9c0-1.7-1.1-3.1-3.1-3.1h-1.7V12
				h1.7C125.9,12,127,10.6,127,8.9z"/>
			<path class="st0" d="M130.8,12.8v-8h5.2v0.9h-4.2v2.6h4.2v0.9h-4.2V12h4.2v0.9H130.8z"/>
		</g>
	</g>
</g>
</svg>
