<?xml version="1.0" encoding="utf-8"?>
<!-- Generator: Adobe Illustrator 23.0.1, SVG Export Plug-In . SVG Version: 6.00 Build 0)  -->
<svg version="1.1" id="Layer_1" xmlns="http://www.w3.org/2000/svg" xmlns:xlink="http://www.w3.org/1999/xlink" x="0px" y="0px"
	 viewBox="0 0 362.3 55.8" style="enable-background:new 0 0 362.3 55.8;" xml:space="preserve">
<style type="text/css">
	.st0{fill:#FFFFFF;}
</style>
<polygon class="st0" points="343.9,27.9 332.6,39.2 332.6,16.6 "/>
<polygon class="st0" points="18.1,27.9 29.4,16.6 29.4,39.2 "/>
<g>
	<path class="st0" d="M50.4,35.5h-5.6V19.7h5.6c2.7,0,4.9,0.7,6.4,2.2c1.5,1.5,2.3,3.3,2.3,5.5c0,2.5-0.8,4.4-2.3,5.9
		C55.3,34.8,53.2,35.5,50.4,35.5z M50.4,22.6h-1.6v10h1.6c2.9,0,4.3-1.7,4.3-5C54.7,24.3,53.3,22.6,50.4,22.6z"/>
	<path class="st0" d="M65.4,35.5h-4V23.6h3.5l0.2,2.1c0.2-0.6,0.6-1.2,1.1-1.6s1.2-0.7,2-0.7c0.1,0,0.3,0,0.7,0.1v3.7
		c-0.2-0.1-0.5-0.1-1-0.1c-0.8,0-1.4,0.2-1.8,0.7c-0.5,0.5-0.7,1.1-0.7,2.1V35.5z"/>
	<path class="st0" d="M73.6,35.9c-1.1,0-2-0.3-2.7-0.9c-0.7-0.6-1-1.4-1-2.5c0-0.8,0.2-1.5,0.7-2.1c0.4-0.6,1-1,1.8-1.3
		c0.8-0.3,1.5-0.5,2.3-0.7c0.8-0.1,1.6-0.2,2.5-0.2v-0.3c0-0.7-0.1-1.2-0.4-1.6c-0.3-0.4-0.6-0.6-1.1-0.6c-0.9,0-1.4,0.5-1.6,1.5
		h-3.8c0.2-1.3,0.8-2.2,1.8-3s2.2-1.1,3.8-1.1c1.8,0,3.1,0.4,4,1.3c0.9,0.9,1.3,2.2,1.3,4v6.9h-3.6L77.3,34c-0.4,0.6-1,1-1.6,1.4
		S74.3,35.9,73.6,35.9z M75.1,33.4c0.6,0,1.1-0.2,1.4-0.7s0.6-1.1,0.6-1.9v-0.9c-2.2,0.1-3.3,0.8-3.3,2.1c0,0.5,0.1,0.8,0.4,1
		C74.4,33.2,74.7,33.4,75.1,33.4z"/>
	<path class="st0" d="M89,40.8c-1.5,0-2.8-0.3-3.8-1c-1-0.7-1.6-1.7-1.9-3h3.8c0.1,0.5,0.3,0.9,0.7,1.2c0.3,0.3,0.7,0.4,1.2,0.4
		c1.4,0,2-0.9,2-2.7V34c-0.8,1.1-1.9,1.7-3.2,1.7c-1.5,0-2.6-0.6-3.5-1.7S83,31.2,83,29.4s0.5-3.3,1.4-4.4c0.9-1.1,2.2-1.7,3.7-1.7
		c0.6,0,1.3,0.2,1.9,0.5c0.6,0.4,1.1,0.9,1.4,1.6l0.1-1.8h3.6v11C95.1,38.7,93.1,40.8,89,40.8z M89.1,32.8c0.6,0,1.1-0.3,1.4-0.8
		c0.4-0.6,0.5-1.3,0.5-2.4v-0.4c0-1-0.2-1.8-0.6-2.3s-0.8-0.8-1.4-0.8c-0.6,0-1.1,0.3-1.5,0.9s-0.5,1.4-0.5,2.4c0,1,0.2,1.9,0.5,2.5
		S88.5,32.8,89.1,32.8z"/>
	<path class="st0" d="M107.4,35.9c-1.4,0-2.5-0.4-3.2-1.2c-0.7-0.8-1.1-1.8-1.1-3.1v-5.3h-1.5v-2.6h1.5v-3.4h4v3.4h2.8v2.6h-2.8v5.3
		c0,1,0.4,1.5,1.3,1.5c0.5,0,0.9-0.1,1.4-0.3l0.6,2.5C109.7,35.6,108.7,35.9,107.4,35.9z"/>
	<path class="st0" d="M121.8,34.1c-1.1,1.2-2.6,1.8-4.5,1.8c-1.9,0-3.4-0.6-4.5-1.8c-1.1-1.2-1.7-2.7-1.7-4.5s0.6-3.3,1.7-4.5
		c1.1-1.2,2.6-1.8,4.5-1.8c1.9,0,3.4,0.6,4.5,1.8c1.1,1.2,1.7,2.7,1.7,4.5S123,32.9,121.8,34.1z M115.9,32.3c0.4,0.7,0.8,1,1.5,1
		c0.6,0,1.1-0.3,1.5-1c0.4-0.7,0.5-1.6,0.5-2.7s-0.2-2-0.5-2.7c-0.4-0.7-0.8-1-1.5-1c-0.6,0-1.1,0.3-1.5,1c-0.4,0.7-0.5,1.6-0.5,2.7
		S115.5,31.6,115.9,32.3z"/>
	<path class="st0" d="M130.4,35.5V23.6h3.6l0.1,1.8c0.3-0.7,0.7-1.2,1.4-1.6s1.4-0.6,2.2-0.6c1.7,0,2.9,0.7,3.6,2.1
		c0.3-0.7,0.7-1.2,1.4-1.6c0.6-0.4,1.4-0.6,2.3-0.6c1.2,0,2.2,0.4,2.9,1.2c0.7,0.8,1.1,1.8,1.1,3.2v7.9h-4v-7.3
		c0-0.6-0.1-1.2-0.4-1.5c-0.3-0.4-0.6-0.5-1.1-0.5c-0.5,0-0.9,0.2-1.2,0.7c-0.3,0.4-0.5,1.1-0.5,1.9v6.8h-4v-7.3
		c0-0.6-0.1-1.2-0.4-1.5c-0.3-0.4-0.6-0.5-1.1-0.5c-0.5,0-0.9,0.2-1.2,0.7s-0.5,1.1-0.5,1.9v6.8H130.4z"/>
	<path class="st0" d="M161.5,34.1c-1.1,1.2-2.6,1.8-4.5,1.8c-1.9,0-3.4-0.6-4.5-1.8c-1.1-1.2-1.7-2.7-1.7-4.5s0.6-3.3,1.7-4.5
		c1.1-1.2,2.6-1.8,4.5-1.8c1.9,0,3.4,0.6,4.5,1.8c1.1,1.2,1.7,2.7,1.7,4.5S162.6,32.9,161.5,34.1z M155.5,32.3c0.4,0.7,0.8,1,1.5,1
		c0.6,0,1.1-0.3,1.5-1c0.4-0.7,0.5-1.6,0.5-2.7s-0.2-2-0.5-2.7c-0.4-0.7-0.8-1-1.5-1c-0.6,0-1.1,0.3-1.5,1c-0.4,0.7-0.5,1.6-0.5,2.7
		S155.1,31.6,155.5,32.3z"/>
	<path class="st0" d="M172,35.5h-4.2l-4.2-11.9h4.2l2.3,8.2l2.3-8.2h3.9L172,35.5z"/>
	<path class="st0" d="M182.6,35.9c-1.8,0-3.2-0.5-4.3-1.6c-1.1-1.1-1.7-2.6-1.7-4.7c0-1.9,0.5-3.4,1.6-4.6c1.1-1.1,2.5-1.7,4.3-1.7
		c1.8,0,3.3,0.6,4.3,1.7c1,1.1,1.6,2.7,1.6,4.6v0.8h-7.8c0.2,2,0.9,3,2.1,3c1,0,1.6-0.5,1.8-1.5h3.8c-0.3,1.3-1,2.3-2,3
		C185.3,35.5,184.1,35.9,182.6,35.9z M182.5,25.8c-0.5,0-1,0.2-1.3,0.7c-0.4,0.5-0.6,1.1-0.6,2h3.9
		C184.3,26.7,183.6,25.8,182.5,25.8z"/>
	<path class="st0" d="M200.1,35.9c-1.7,0-3-0.3-4-1c-1-0.7-1.5-1.7-1.6-3h3.9c0.1,1.1,0.7,1.7,1.8,1.7c0.4,0,0.8-0.1,1.1-0.3
		c0.3-0.2,0.4-0.4,0.4-0.7c0-0.6-0.5-1.1-1.5-1.4l-2-0.5c-2.2-0.6-3.3-1.7-3.3-3.5c0-1.2,0.5-2.1,1.5-2.8c1-0.6,2.3-1,3.9-1
		c1.5,0,2.6,0.3,3.5,1c0.9,0.7,1.4,1.6,1.6,2.9h-3.9c-0.1-1-0.6-1.5-1.5-1.5c-0.4,0-0.7,0.1-0.9,0.3s-0.3,0.5-0.3,0.8
		c0,0.6,0.4,1,1.3,1.3l1.7,0.4c1.4,0.3,2.3,0.8,2.9,1.3c0.6,0.5,0.9,1.3,0.9,2.2c0,1.2-0.5,2.2-1.4,2.9S201.8,35.9,200.1,35.9z"/>
	<path class="st0" d="M211.3,21.6c-0.4,0.4-1,0.6-1.6,0.6c-0.6,0-1.2-0.2-1.6-0.6c-0.4-0.4-0.7-0.9-0.7-1.5s0.2-1.1,0.7-1.5
		c0.4-0.4,1-0.6,1.6-0.6c0.6,0,1.2,0.2,1.6,0.6c0.4,0.4,0.7,0.9,0.7,1.5S211.7,21.2,211.3,21.6z M211.7,35.5h-4V23.6h4V35.5z"/>
	<path class="st0" d="M218.7,23.3c0.6,0,1.3,0.2,1.8,0.5c0.6,0.3,1,0.7,1.4,1.3v-6.1h4v16.6h-3.6l-0.1-1.9c-0.7,1.5-1.9,2.3-3.6,2.3
		c-1.4,0-2.6-0.6-3.5-1.8c-0.9-1.2-1.3-2.7-1.3-4.5c0-1.8,0.5-3.4,1.4-4.5C216,23.9,217.2,23.3,218.7,23.3z M219.9,26.1
		c-0.6,0-1.1,0.3-1.5,1c-0.3,0.6-0.5,1.5-0.5,2.5s0.2,1.9,0.5,2.5c0.3,0.6,0.8,1,1.5,1c0.6,0,1.1-0.3,1.4-0.9
		c0.4-0.6,0.5-1.4,0.5-2.4v-0.4c0-1-0.2-1.8-0.6-2.4C221,26.4,220.5,26.1,219.9,26.1z"/>
	<path class="st0" d="M234,35.9c-1.8,0-3.2-0.5-4.4-1.6c-1.1-1.1-1.7-2.6-1.7-4.7c0-1.9,0.5-3.4,1.6-4.6c1.1-1.1,2.5-1.7,4.3-1.7
		c1.8,0,3.3,0.6,4.3,1.7c1,1.1,1.6,2.7,1.6,4.6v0.8H232c0.2,2,0.9,3,2.1,3c1,0,1.6-0.5,1.8-1.5h3.8c-0.3,1.3-1,2.3-2,3
		C236.7,35.5,235.5,35.9,234,35.9z M233.9,25.8c-0.5,0-1,0.2-1.3,0.7s-0.6,1.1-0.6,2h3.9C235.7,26.7,235.1,25.8,233.9,25.8z"/>
	<path class="st0" d="M251.3,35.9c-1.4,0-2.5-0.4-3.2-1.2c-0.7-0.8-1.1-1.8-1.1-3.1v-5.3h-1.5v-2.6h1.5v-3.4h4v3.4h2.8v2.6h-2.8v5.3
		c0,1,0.4,1.5,1.3,1.5c0.5,0,0.9-0.1,1.4-0.3l0.6,2.5C253.6,35.6,252.6,35.9,251.3,35.9z"/>
	<path class="st0" d="M265.8,34.1c-1.1,1.2-2.6,1.8-4.5,1.8s-3.4-0.6-4.5-1.8c-1.1-1.2-1.7-2.7-1.7-4.5s0.6-3.3,1.7-4.5
		c1.1-1.2,2.6-1.8,4.5-1.8s3.4,0.6,4.5,1.8c1.1,1.2,1.7,2.7,1.7,4.5S266.9,32.9,265.8,34.1z M259.8,32.3c0.4,0.7,0.8,1,1.5,1
		c0.6,0,1.1-0.3,1.5-1c0.4-0.7,0.5-1.6,0.5-2.7s-0.2-2-0.5-2.7c-0.4-0.7-0.8-1-1.5-1c-0.6,0-1.1,0.3-1.5,1c-0.4,0.7-0.5,1.6-0.5,2.7
		S259.4,31.6,259.8,32.3z"/>
	<path class="st0" d="M279.2,35.9c-1.7,0-3-0.3-4-1c-1-0.7-1.5-1.7-1.6-3h3.9c0.1,1.1,0.7,1.7,1.8,1.7c0.4,0,0.8-0.1,1.1-0.3
		c0.3-0.2,0.4-0.4,0.4-0.7c0-0.6-0.5-1.1-1.5-1.4l-2-0.5c-2.2-0.6-3.3-1.7-3.3-3.5c0-1.2,0.5-2.1,1.5-2.8c1-0.6,2.3-1,3.9-1
		c1.5,0,2.6,0.3,3.5,1c0.9,0.7,1.4,1.6,1.6,2.9h-3.9c-0.1-1-0.6-1.5-1.5-1.5c-0.4,0-0.7,0.1-0.9,0.3s-0.3,0.5-0.3,0.8
		c0,0.6,0.4,1,1.3,1.3l1.7,0.4c1.4,0.3,2.3,0.8,2.9,1.3c0.6,0.5,0.9,1.3,0.9,2.2c0,1.2-0.5,2.2-1.4,2.9S280.9,35.9,279.2,35.9z"/>
	<path class="st0" d="M290.4,21.6c-0.4,0.4-1,0.6-1.6,0.6c-0.6,0-1.2-0.2-1.6-0.6c-0.4-0.4-0.7-0.9-0.7-1.5s0.2-1.1,0.7-1.5
		c0.4-0.4,1-0.6,1.6-0.6c0.6,0,1.2,0.2,1.6,0.6c0.4,0.4,0.7,0.9,0.7,1.5S290.8,21.2,290.4,21.6z M290.8,35.5h-4V23.6h4V35.5z"/>
	<path class="st0" d="M297.8,23.3c0.6,0,1.3,0.2,1.8,0.5c0.6,0.3,1,0.7,1.4,1.3v-6.1h4v16.6h-3.6l-0.1-1.9c-0.7,1.5-1.9,2.3-3.6,2.3
		c-1.4,0-2.6-0.6-3.5-1.8c-0.9-1.2-1.3-2.7-1.3-4.5c0-1.8,0.5-3.4,1.4-4.5C295.2,23.9,296.3,23.3,297.8,23.3z M299,26.1
		c-0.6,0-1.1,0.3-1.5,1c-0.3,0.6-0.5,1.5-0.5,2.5s0.2,1.9,0.5,2.5c0.3,0.6,0.8,1,1.5,1c0.6,0,1.1-0.3,1.4-0.9
		c0.4-0.6,0.5-1.4,0.5-2.4v-0.4c0-1-0.2-1.8-0.6-2.4C300.1,26.4,299.6,26.1,299,26.1z"/>
	<path class="st0" d="M313.1,35.9c-1.8,0-3.2-0.5-4.4-1.6c-1.1-1.1-1.7-2.6-1.7-4.7c0-1.9,0.5-3.4,1.6-4.6c1.1-1.1,2.5-1.7,4.3-1.7
		c1.8,0,3.3,0.6,4.3,1.7c1,1.1,1.6,2.7,1.6,4.6v0.8h-7.8c0.2,2,0.9,3,2.1,3c1,0,1.6-0.5,1.8-1.5h3.8c-0.3,1.3-1,2.3-2,3
		C315.8,35.5,314.6,35.9,313.1,35.9z M313.1,25.8c-0.5,0-1,0.2-1.3,0.7s-0.6,1.1-0.6,2h3.9C314.8,26.7,314.2,25.8,313.1,25.8z"/>
</g>
</svg>
