<?xml version="1.0" encoding="utf-8"?>
<!-- Generator: Adobe Illustrator 23.0.1, SVG Export Plug-In . SVG Version: 6.00 Build 0)  -->
<svg version="1.1" id="Layer_1" xmlns="http://www.w3.org/2000/svg" xmlns:xlink="http://www.w3.org/1999/xlink" x="0px" y="0px"
	 viewBox="0 0 51 250" style="enable-background:new 0 0 51 250;" xml:space="preserve">
<style type="text/css">
	.st0{opacity:0.5;fill:#010101;}
	.st1{fill:none;stroke:#FFFFFF;stroke-miterlimit:10;}
	.st2{fill:#FFFFFF;}
</style>
<g>
	<path class="st0" d="M32.9,240H18.3c-2.9,0-5.2-2.3-5.2-5.2V33.2c0-2.9,2.3-5.2,5.2-5.2h14.6c2.9,0,5.2,2.3,5.2,5.2v201.6
		C38.1,237.7,35.8,240,32.9,240z"/>
	<path class="st1" d="M32.9,240H18.3c-2.9,0-5.2-2.3-5.2-5.2V33.2c0-2.9,2.3-5.2,5.2-5.2h14.6c2.9,0,5.2,2.3,5.2,5.2v201.6
		C38.1,237.7,35.8,240,32.9,240z"/>
	<g>
		<path class="st2" d="M13.4,18.8v-7.1h-2.6V10h7v1.6h-2.6v7.1H13.4z"/>
		<path class="st2" d="M19.1,18.8V10h1.9v8.8H19.1z"/>
		<path class="st2" d="M30.3,18.8v-6.3l-2.5,6.3H27l-2.5-6.3v6.3h-1.9V10h2.6l2.1,5.5l2.1-5.5h2.6v8.8H30.3z"/>
		<path class="st2" d="M33.9,18.8V10h6.2v1.6h-4.3v1.8H40v1.6h-4.3v2h4.3v1.6H33.9z"/>
	</g>
</g>
</svg>
