<?xml version="1.0" encoding="utf-8"?>
<!-- Generator: Adobe Illustrator 23.0.1, SVG Export Plug-In . SVG Version: 6.00 Build 0)  -->
<svg version="1.1" id="Layer_1" xmlns="http://www.w3.org/2000/svg" xmlns:xlink="http://www.w3.org/1999/xlink" x="0px" y="0px"
	 viewBox="0 0 75 40" style="enable-background:new 0 0 75 40;" xml:space="preserve">
<style type="text/css">
	.st0{fill:#FEBB15;}
	.st1{fill-rule:evenodd;clip-rule:evenodd;fill:url(#SVGID_1_);}
</style>
<g>
	<path class="st0" d="M62.6,3c-3.4,0-6.5,4.6-8.5,11.7C52.1,7.6,49,3,45.6,3c-6,0-10.9,15.2-10.9,34h4.9c0-17.4,2.7-31.6,6.1-31.6
		c3.4,0,6.1,13.1,6.1,29.2h4.9c0-16.1,2.7-29.2,6.1-29.2c3.4,0,6.1,14.1,6.1,31.6h4.9C73.5,18.2,68.6,3,62.6,3z"/>
	
		<linearGradient id="SVGID_1_" gradientUnits="userSpaceOnUse" x1="1.4831" y1="819.6683" x2="34.1535" y2="819.6683" gradientTransform="matrix(1 0 0 -1 0 842.1102)">
		<stop  offset="6.166980e-04" style="stop-color:#902065"/>
		<stop  offset="3.620000e-02" style="stop-color:#981E5C"/>
		<stop  offset="0.1727" style="stop-color:#B61F39"/>
		<stop  offset="0.3012" style="stop-color:#CA2027"/>
		<stop  offset="0.4172" style="stop-color:#D61F26"/>
		<stop  offset="0.5101" style="stop-color:#DA1F26"/>
		<stop  offset="1" style="stop-color:#E67325"/>
	</linearGradient>
	<path class="st1" d="M3.3,11.6L1.5,27.9h4.2l1-10l2.9,8.8h2.7l2.9-8.7l0.9,9.9h4.3l-1.8-16.2h-4.2l-3.4,10.2L7.5,11.6H3.3z
		 M22.2,30.1l-0.8,2.5c0.4,0.2,0.8,0.3,1.2,0.4c0.5,0.1,1,0.2,1.6,0.2c1.1,0,2-0.4,2.8-1.1c0.8-0.7,1.5-1.8,2-3.3l5.2-13.2h-4
		l-2.3,7.7l-2.3-7.7h-4.3l4.7,12l-0.5,1.1c-0.3,0.7-0.6,1.2-0.9,1.4c-0.3,0.2-0.6,0.3-1,0.3C23.2,30.4,22.7,30.3,22.2,30.1z"/>
</g>
</svg>
