<?xml version="1.0" encoding="utf-8"?>
<!-- Generator: Adobe Illustrator 23.0.1, SVG Export Plug-In . SVG Version: 6.00 Build 0)  -->
<svg version="1.1" xmlns="http://www.w3.org/2000/svg" xmlns:xlink="http://www.w3.org/1999/xlink" x="0px" y="0px"
	 viewBox="0 0 62.6 56.3" style="enable-background:new 0 0 62.6 56.3;" xml:space="preserve">
<style type="text/css">
	.st0{display:none;}
	.st1{display:inline;}
	.st2{fill:#FFFFFF;}
</style>
<g id="Layer_1" class="st0">
	<g class="st1">
		<path class="st2" d="M30.8,4.7L19.1,16.4c-0.3,0.3-0.8,0.5-1.2,0.5H6.3c-1,0-1.8,0.8-1.8,1.8v8.7V29v8.7c0,1,0.8,1.8,1.8,1.8h11.6
			c0.5,0,0.9,0.2,1.2,0.5l11.7,11.7c1.1,1.1,3,0.3,3-1.2V29v-1.6V5.9C33.8,4.3,31.9,3.5,30.8,4.7z"/>
		<path class="st2" d="M49.6,28.1l4.5-4.5c0.8-0.8,0.8-2,0-2.8c-0.8-0.8-2-0.8-2.8,0l-4.5,4.5l-4.5-4.5c-0.8-0.8-2-0.8-2.8,0
			c-0.8,0.8-0.8,2,0,2.8l4.5,4.5l-4.5,4.5c-0.8,0.8-0.8,2,0,2.8c0.4,0.4,0.9,0.6,1.4,0.6s1-0.2,1.4-0.6l4.5-4.5l4.5,4.5
			c0.4,0.4,0.9,0.6,1.4,0.6s1-0.2,1.4-0.6c0.8-0.8,0.8-2,0-2.8L49.6,28.1z"/>
	</g>
</g>
<g id="Layer_2">
	<g>
		<path class="st2" d="M30.8,4.7L19.1,16.4c-0.3,0.3-0.8,0.5-1.2,0.5H6.3c-1,0-1.8,0.8-1.8,1.8v8.7V29v8.7c0,1,0.8,1.8,1.8,1.8h11.6
			c0.5,0,0.9,0.2,1.2,0.5l11.7,11.7c1.1,1.1,3,0.3,3-1.2V29v-1.6V5.9C33.8,4.3,31.9,3.5,30.8,4.7z"/>
		<path class="st2" d="M45.7,7.5c-1-0.5-2.2-0.2-2.7,0.8c-0.5,1-0.2,2.2,0.8,2.7c6.2,3.5,10.1,10.1,10.1,17.2s-3.9,13.7-10.1,17.2
			c-1,0.5-1.3,1.8-0.8,2.7c0.4,0.7,1,1,1.7,1c0.3,0,0.7-0.1,1-0.3c7.5-4.2,12.1-12.1,12.1-20.7S53.1,11.7,45.7,7.5z"/>
		<path class="st2" d="M44.3,40.3c3.6-3,5.7-7.5,5.7-12.2c0-4.7-2.1-9.2-5.7-12.2c-0.8-0.7-2.1-0.6-2.8,0.2
			c-0.7,0.8-0.6,2.1,0.2,2.8c2.7,2.3,4.3,5.6,4.3,9.1c0,3.5-1.6,6.9-4.3,9.1c-0.8,0.7-1,2-0.2,2.8c0.4,0.5,1,0.7,1.5,0.7
			C43.5,40.8,43.9,40.6,44.3,40.3z"/>
	</g>
</g>
</svg>
